<svg width="193" height="87" viewBox="0 0 193 87" fill="none" xmlns="http://www.w3.org/2000/svg">
<path d="M17.5527 63.1416C35.5644 58.0862 74.6867 37.0007 80.6058 26.4325C80.8346 26.026 80.9107 25.5689 80.8599 25.1115C80.809 23.2316 74.0007 11.7489 64.5758 6.51572C64.1947 6.38869 63.7885 6.38869 63.4074 6.49024C59.4186 7.32851 52.2292 12.9684 43.9983 22.6219C33.3287 34.8159 24.4116 48.4579 17.5527 63.1416Z" stroke="black" stroke-width="0.23651"/>
<path d="M81.9268 31.4624C83.1715 32.0466 83.5526 34.1297 83.5526 34.6378C83.3494 46.3492 41.9661 63.8781 17.5527 64.7926C34.0145 74.5732 64.474 78.5108 77.5065 66.393C81.1647 62.9889 87.084 51.049 83.5018 34.4347" stroke="black" stroke-width="0.23651"/>
<path d="M78.2941 65.5802C75.9824 72.2867 69.2249 78.2822 55.837 78.333C41.8899 78.333 28.4004 73.5571 17.5527 64.7927C22.837 72.9473 31.2201 85.1414 45.5988 86.2591C50.629 86.6402 60.1047 83.0837 64.2963 80.4164C71.4349 75.8943 77.3796 69.7972 78.2941 65.5802Z" stroke="black" stroke-width="0.23651"/>
<path d="M43.8955 86.0815C41.8887 86.5643 39.8054 86.6149 37.7984 86.234C35.3343 85.802 33.0225 84.7605 31.0412 83.2617C22.6831 77.6219 18.9232 67.8921 17.5514 64.8181C16.5099 72.0837 16.9926 78.5364 20.6254 80.6195C24.7154 83.0583 29.2121 84.8112 33.8863 85.7765C35.4869 86.1323 37.1127 86.3609 38.7385 86.4626C39.272 86.5133 39.8306 86.5133 40.3643 86.4879" stroke="black" stroke-width="0.23651"/>
<path d="M17.754 77.6218C16.8902 77.7488 16.0265 77.4187 15.4422 76.7581C14.985 75.9198 14.807 74.929 14.9341 73.989C15.3404 70.8134 16.2297 67.7142 17.5508 64.8181C14.7818 65.7327 7.46531 67.7397 5.78863 65.6564C5.81433 65.7072 5.61079 65.4025 5.76323 65.6564C7.56708 68.6034 9.67552 71.347 12.0636 73.8111C12.9273 74.7512 13.8417 75.6148 14.8327 76.4278C15.5694 77.2405 16.6362 77.6726 17.754 77.6218Z" stroke="black" stroke-width="0.23651"/>
<path d="M0.888204 36.7972C-2.97328 49.0927 8.48414 59.0514 17.5534 64.1829C15.8003 64.1067 5.94364 64.437 3.75898 60.7788C-0.509147 51.7857 -0.356853 39.109 0.888204 36.7972Z" stroke="black" stroke-width="0.23651"/>
<path d="M24.9708 4.55945C8.58514 7.76037 2.89454 36.5686 17.5783 63.1668C7.49296 55.1139 1.14194 45.6634 0.836914 35.7813C2.20872 19.5479 18.3656 4.99136 24.9708 4.55945Z" stroke="black" stroke-width="0.23651"/>
<path d="M5.71446 65.1229C5.48551 64.6147 5.53661 64.0305 5.81579 63.5477" stroke="black" stroke-width="0.23651"/>
<path d="M60.3085 5.01641C55.7865 -1.15677 46.1331 5.88015 36.3777 19.3952C28.2485 30.6492 19.916 48.0002 17.5533 63.1412C11.7612 48.9148 8.40803 17.8964 24.9459 4.55909C36.3269 -3.34158 57.1329 1.02796 59.8004 4.45754C59.953 4.6099 59.7242 4.33051 60.3085 5.01641Z" stroke="black" stroke-width="0.23651"/>
<path d="M59.4688 4.66089C60.7389 5.19442 62.0092 5.95654 63.1778 6.56637" stroke="black" stroke-width="0.23651"/>
<path d="M80.6562 26.9147C81.2405 28.2358 81.6978 29.5821 82.079 30.9793" stroke="black" stroke-width="0.23651"/>
<path d="M18.3152 77.9254C17.96 77.7478 17.605 77.5196 17.2754 77.2914" stroke="black" stroke-width="0.23651"/>
<path d="M5.43359 62.4808C5.56055 62.836 5.68707 63.191 5.81417 63.546" stroke="black" stroke-width="0.23651"/>
<path d="M15.06 62.0693C6.52415 56.3788 -1.22423 48.224 0.909764 38.1639" stroke="#0000FF" stroke-width="0.23651"/>
<path d="M16.4567 60.0874C4.18631 35.2423 9.29256 9.45711 24.5097 4.93506" stroke="#0000FF" stroke-width="0.23651"/>
<path d="M5.86502 63.6696C5.68718 64.5333 6.24626 65.397 7.10965 65.6003C10.4887 65.9052 13.8926 65.4734 17.119 64.3809" stroke="#0000FF" stroke-width="0.23651"/>
<path d="M18.1074 61.9171C22.9595 35.014 49.6594 -4.26085 59.4402 4.65593" stroke="#0000FF" stroke-width="0.23651"/>
<path d="M82.0767 31.3556C86.0142 35.5726 78.8501 42.5589 67.215 48.8337C53.3444 56.3024 33.2244 62.806 19.0742 63.6189" stroke="#0000FF" stroke-width="0.23651"/>
<path d="M19.3018 65.7784C32.6644 74.6953 45.7729 78.3535 56.646 77.9215C72.5234 77.261 76.5121 68.4458 77.6551 66.2866" stroke="#0000FF" stroke-width="0.23651"/>
<path d="M18.8691 66.8198C21.6634 73.9076 26.6683 79.9282 33.1208 83.9676C35.3819 85.314 37.9476 86.0507 40.5642 86.0761C41.3518 86.127 42.1648 86.0761 42.9267 85.9237" stroke="#0000FF" stroke-width="0.23651"/>
<path d="M17.3467 66.4135C16.2035 68.8777 15.5176 71.5451 15.2635 74.2635C15.2379 76.1942 15.8224 77.1087 17.3721 77.3882" stroke="#0000FF" stroke-width="0.23651"/>
<path d="M13.1222 60.2478C7.00002 55.37 -0.0369744 48.4601 1.02995 39.1625" stroke="#FF0000" stroke-width="0.23651"/>
<path d="M15.4074 56.615C12.3083 49.1462 10.6061 41.1947 10.3777 33.1162C10.2251 21.6336 13.807 10.2524 24.1465 5.2478" stroke="#FF0000" stroke-width="0.23651"/>
<path d="M19.2451 59.5623C23.5128 45.0311 29.9658 31.2368 38.349 18.6109C46.529 7.20432 54.9887 1.97118 59.46 4.61302" stroke="#FF0000" stroke-width="0.23651"/>
<path d="M82.0934 31.338C85.9548 38.6034 71.1185 47.9522 52.726 55.2432C42.3866 59.1045 31.6152 61.7467 20.666 63.0931" stroke="#FF0000" stroke-width="0.23651"/>
<path d="M24.1221 68.0981C44.2168 79.4538 67.5379 81.9179 77.4962 66.4214" stroke="#FF0000" stroke-width="0.23651"/>
<path d="M21.582 70.6888C29.1017 83.0353 35.1223 85.3216 41.7531 85.6772" stroke="#FF0000" stroke-width="0.23651"/>
<path d="M17.3124 77.3197C16.4235 76.8116 15.8136 75.9225 15.6865 74.9317C15.7881 72.3152 16.3215 69.7492 17.2616 67.3105" stroke="#FF0000" stroke-width="0.23651"/>
<path d="M5.80566 63.5503C6.33934 64.3123 6.54245 64.8713 7.17761 65.1253C9.46404 65.7095 11.8771 65.4047 13.9858 64.3123" stroke="#FF0000" stroke-width="0.23651"/>
<path opacity="0.75" d="M5.81197 63.6079C5.71063 63.7349 5.65982 63.862 5.60886 64.0144C5.5325 64.3446 5.55791 64.7002 5.65982 65.0305C5.9136 65.4624 6.32039 65.7673 6.80297 65.8943C7.46353 66.0974 8.12395 66.1737 8.80993 66.1484C9.49576 66.1484 10.1563 66.0974 10.8421 66.0214C12.9763 65.7165 15.0846 65.2084 17.1676 64.5478C17.2186 64.4971 17.3456 64.5225 17.371 64.4463C17.3203 64.37 17.1676 64.4208 17.0915 64.3955C16.0502 64.37 15.0082 64.37 13.9671 64.3193C12.7475 64.9036 11.452 65.2592 10.1057 65.4116C9.08925 65.5641 8.04788 65.4372 7.08229 65.0813C6.82852 64.9797 6.62512 64.8019 6.47283 64.5734C6.29484 64.0905 6.06632 63.6332 5.81197 63.6332V63.6079Z" fill="black"/>
<path opacity="0.75" d="M17.4964 64.9799C17.1917 65.6404 16.9375 66.3263 16.6834 67.0122C15.9215 68.9428 15.3625 70.9498 15.0069 73.0076C14.8545 73.9221 14.8545 74.8621 15.0069 75.7766C15.0833 76.4117 15.4641 76.9451 16.0232 77.2754C16.5314 77.5803 17.1156 77.7073 17.6744 77.6565C17.7254 77.5803 17.4967 77.5295 17.4458 77.4532L17.4204 77.4279C17.471 77.4279 17.5981 77.4279 17.5728 77.4024C17.217 77.1738 16.8868 76.8942 16.5564 76.6148C16.4803 76.5641 16.3278 76.4371 16.1753 76.31L16.0991 76.2083C15.769 75.7003 15.6165 75.1161 15.6418 74.5063C15.6675 73.5664 15.7942 72.6264 16.0232 71.7119C16.3787 70.2129 16.8105 68.765 17.2424 67.2915C17.3187 66.5296 17.4204 65.7675 17.4964 64.9799C17.522 65.0053 17.522 64.9799 17.4964 64.9799Z" fill="black"/>
<path opacity="0.75" d="M17.7236 65.1067C17.9269 65.691 18.1809 66.2499 18.435 66.8088C20.264 71.1276 22.7283 75.1159 25.8021 78.6471C27.2249 80.2477 28.8508 81.6956 30.6037 82.9404C31.5182 83.601 32.4582 84.2106 33.4235 84.7441C34.16 85.1253 34.9223 85.43 35.7099 85.6334H35.8879C35.8114 85.735 36.0658 85.7095 36.1417 85.7603C36.9037 85.9635 37.6407 86.1923 38.4027 86.3446C39.495 86.497 40.6128 86.5224 41.7053 86.4209C42.4166 86.37 43.1026 86.2683 43.7884 86.1161C43.814 86.0144 43.5852 86.0652 43.509 86.0144C42.8995 85.9381 42.3153 85.7603 41.7562 85.4809C41.2735 85.4809 40.7398 85.4555 40.2064 85.43C38.2504 85.4555 36.3195 84.9982 34.5922 84.0838C31.9755 82.8388 29.6384 81.1113 27.6822 78.9521C25.4467 76.4625 23.4399 73.7696 21.7124 70.8988C21.2805 70.2383 20.7724 69.6033 20.3405 68.9428C19.4516 67.698 18.6131 66.4024 17.7747 65.1323C17.7999 65.1067 17.7743 65.1067 17.7236 65.1067Z" fill="black"/>
<path opacity="0.75" d="M17.9029 65.031C17.8521 65.1072 18.0046 65.1325 18.0299 65.1833C23.6949 69.6292 30.1225 73.0839 36.9561 75.3705C41.986 77.0217 47.194 78.0125 52.4779 78.2919C54.1799 78.3936 55.8567 78.3681 57.5589 78.3173C59.0576 78.2411 60.5565 78.0887 62.03 77.8601C62.03 77.8347 62.0554 77.8092 62.0554 77.7839V77.8347C62.1315 77.8853 62.2587 77.8092 62.3603 77.8092C65.6881 77.2503 68.8638 76.0309 71.6836 74.1511C74.1474 72.4997 76.1293 70.2134 77.4501 67.5713C77.7296 66.987 77.9837 66.3773 78.2125 65.7422C78.2633 65.6152 78.2633 65.6152 78.1871 65.7167C77.7804 66.1487 77.3485 66.5806 76.8912 66.9617C76.6373 67.3426 76.3575 67.7491 76.0783 68.1557C75.5958 68.8161 75.0876 69.4766 74.7573 69.9086C73.6649 71.0263 72.4709 72.0171 71.2007 72.9061C68.457 74.7098 65.3831 75.9801 62.182 76.6152C62.1566 76.6152 62.1058 76.6406 62.0806 76.666C61.9792 76.6405 61.8519 76.7166 61.7504 76.7166C59.5658 77.1231 57.3301 77.3265 55.1201 77.3265C50.3185 77.2756 45.5426 76.5643 40.9189 75.1925C35.1521 73.5158 29.6141 71.1787 24.3808 68.2063C23.949 67.9523 23.4663 67.7744 23.0091 67.5712C21.3069 66.8091 19.6304 65.9707 18.0046 65.0308C17.9537 65.031 17.9284 65.0055 17.9029 65.031Z" fill="black"/>
<path opacity="0.75" d="M81.9467 30.7355C81.896 30.8118 81.9721 30.9133 81.9975 31.0149C82.1755 31.5737 82.5056 32.8948 82.6582 33.5046C82.709 34.5207 82.5056 35.5115 82.074 36.4261C81.2102 38.1282 80.0163 39.6523 78.5682 40.9226C76.3072 42.9549 73.8176 44.784 71.2009 46.3336C67.3904 48.6199 63.4274 50.6524 59.3624 52.4561C59.2865 52.5068 59.1847 52.5068 59.1337 52.583C58.7275 52.7101 58.372 52.9132 57.9653 53.0658C54.6882 54.4883 51.3855 55.8348 48.0067 56.9779C42.4178 58.8325 36.7022 60.3059 30.91 61.4238C27.5058 62.0843 24.0761 62.6432 20.6466 63.1003C19.6813 63.4306 18.6906 63.71 17.7251 64.015C17.6744 64.1165 17.9029 64.0403 17.9539 64.0403C22.9585 63.7609 27.9377 63.0495 32.8153 61.9065C39.3443 60.433 45.746 58.5022 51.9951 56.1396C54.8406 55.0726 57.6606 53.9041 60.455 52.6338C60.455 52.6085 60.455 52.5831 60.4297 52.5831H60.582C65.1294 50.5508 69.499 48.1882 73.665 45.4954C76.0277 43.9711 78.2125 42.2182 80.1941 40.2113C81.4388 38.9919 82.4298 37.5185 83.1411 35.9179C83.4712 35.1305 83.5982 34.2667 83.5221 33.4283C83.4204 32.5392 83.014 31.7008 82.4298 31.0404C82.2771 30.9387 82.1245 30.837 81.9467 30.7355Z" fill="black"/>
<path opacity="0.75" d="M0.806208 37.0864C0.729989 37.2643 0.679464 37.4422 0.653769 37.6199C0.32363 38.9155 0.145786 40.2365 0.171336 41.5575C0.145786 42.2688 0.171336 43.0055 0.272673 43.7169C0.247267 43.8185 0.298368 43.8693 0.349037 43.8948C0.32363 43.8948 0.298368 43.9455 0.32363 43.971C0.780801 46.7909 1.87328 49.4837 3.49914 51.8462C5.5061 54.7424 7.94483 57.3336 10.7392 59.5183C12.797 61.1441 14.9817 62.643 17.2428 63.9385C17.3191 63.964 17.3191 63.8877 17.2683 63.8624C15.9217 62.77 14.6007 61.6014 13.3304 60.4327C12.4669 59.6707 11.5777 58.9846 10.7138 58.2227C8.09712 56.0125 5.78543 53.4467 3.9055 50.5759C2.73681 48.7722 1.89854 46.7653 1.3907 44.6822C1.31419 44.4282 1.28907 44.1994 1.21285 43.9455C1.18716 43.9455 1.1619 43.92 1.13635 43.92H1.21285C1.21285 43.7168 1.13635 43.5135 1.13635 43.3103C0.958502 41.9894 0.933095 40.6683 1.06013 39.3473C1.06013 38.9662 0.983764 38.5851 0.958502 38.204C0.933095 37.823 0.907833 37.4928 0.882283 37.1371C0.857165 37.1118 0.831758 37.0864 0.806208 37.0864Z" fill="black"/>
<path opacity="0.75" d="M24.8627 4.5686C23.3132 4.87326 21.8398 5.4322 20.4679 6.19432C20.4679 6.21966 20.4933 6.24514 20.5187 6.24514H20.3918C17.9022 7.69323 15.8192 9.72545 14.244 12.1389C12.5167 14.8064 11.2463 17.7532 10.4589 20.8527C9.84914 23.1898 9.44249 25.6031 9.23953 28.0165C9.23953 28.0673 9.23953 28.0673 9.26493 28.0927H9.23953C9.16316 28.8549 9.1379 29.5916 9.1125 30.3539C9.08695 31.7257 9.08695 33.0974 9.1379 34.4692C9.26493 37.2889 9.62062 40.1088 10.1542 42.9034H10.205H10.1542C10.2304 43.4368 10.3828 43.9704 10.4844 44.5294C11.7545 50.2959 13.787 55.8851 16.4796 61.1436C16.7592 61.6771 17.0133 62.2107 17.3182 62.7187C17.4197 62.7187 17.3182 62.5917 17.3182 62.5409C16.6068 60.661 15.9715 58.7301 15.4638 56.7741C15.1589 55.9104 14.7778 55.072 14.4728 54.2082C13.1264 50.55 12.0848 46.765 11.3991 42.9289H11.3481H11.3734C11.2211 41.9889 11.0686 41.0489 10.9416 40.1091C10.5605 37.5178 10.3828 34.9012 10.4081 32.2846C10.4081 30.9128 10.4589 29.5156 10.5859 28.1437C10.5859 28.0928 10.5351 28.0928 10.5097 28.0928H10.5859C10.6621 27.966 10.6113 27.8135 10.6369 27.6865C10.9924 23.3931 12.1611 19.2015 14.041 15.3401C15.5906 12.2407 17.8262 9.54782 20.5698 7.46464C21.1287 7.03274 21.7131 6.67726 22.272 6.29609H22.2976C22.7292 6.09306 23.1103 5.81359 23.5422 5.61027C23.8977 5.45783 24.2026 5.25458 24.5076 5.02592C24.6601 4.89896 24.8124 4.77193 24.9394 4.64489C24.9134 4.59394 24.888 4.5686 24.8627 4.5686ZM20.7475 6.24514H20.7727H20.6203C20.671 6.24514 20.7218 6.24514 20.7475 6.24514Z" fill="black"/>
<path opacity="0.75" d="M55.8818 2.76518C55.0178 2.79051 54.1797 2.96829 53.3665 3.27316C51.4107 4.06076 49.607 5.15309 47.981 6.49956C47.0665 7.23627 46.2027 8.02373 45.3391 8.8368C45.3391 8.86214 45.3391 8.86214 45.3645 8.86214H45.2882C43.8402 10.2849 42.4684 11.7584 41.1474 13.2824C38.8355 16.0008 36.7015 18.8205 34.72 21.7674C33.3483 23.7998 32.0527 25.9083 30.8078 28.0168C30.8078 28.0423 30.8332 28.0676 30.8332 28.0676H30.757C28.0133 32.8437 25.5745 37.7974 23.466 42.8783L23.4914 42.9036H23.466C21.7129 47.1208 20.2652 51.4394 19.0966 55.8344C18.4869 58.1716 17.9533 60.5595 17.5977 62.9475C17.6739 63.0237 17.6993 62.8205 17.7247 62.7951C18.2071 61.7788 18.69 60.7628 19.1727 59.7211C19.4266 59.0606 19.6045 58.4002 19.8331 57.7397C21.2557 53.2686 22.8818 48.8482 24.6601 44.4786C24.8633 43.9706 25.092 43.4371 25.2952 42.9291L25.2697 42.9036H25.2952C25.3967 42.7005 25.4985 42.4718 25.6001 42.243C27.6323 37.4417 29.8933 32.742 32.4083 28.1692C32.4338 28.1437 32.4338 28.1185 32.4338 28.093C32.6117 27.8644 32.7132 27.5849 32.8655 27.3309C35.6348 22.3008 38.9117 17.5757 42.6461 13.2317C43.9925 11.7074 45.4405 10.2593 46.9395 8.91288C46.9395 8.88747 46.9139 8.88747 46.9139 8.86214H47.0155C48.6161 7.43952 50.3943 6.19461 52.2998 5.20398C53.7222 4.44171 55.2973 4.00995 56.8979 3.95906C57.787 3.95906 58.6761 4.18765 59.4636 4.61963C59.7177 4.74666 59.9462 4.84836 60.2003 4.94991C60.2767 4.89917 60.1493 4.84836 60.1239 4.79748C59.7938 4.34016 59.3873 3.95921 58.9047 3.65433C58.4474 3.32405 57.9393 3.06998 57.3805 2.94295C56.898 2.79051 56.3899 2.7397 55.8818 2.76518Z" fill="black"/>
<path d="M42.3087 0.870361C19.1658 1.07361 0.569884 20.0252 0.773135 43.1683V43.1937C0.773135 49.8242 2.29709 56.353 5.24423 62.2977C5.24423 62.3231 5.24423 62.3484 5.24423 62.3484L5.44748 62.4755C5.70154 63.2122 6.00628 63.9488 6.36197 64.6349C7.40363 66.6163 8.6738 68.4963 10.0963 70.2238C12.4843 73.1199 15.2789 75.6856 18.3779 77.8196C18.3272 77.8196 20.004 78.9119 20.6392 79.2929C27.1427 83.3577 34.6624 85.5171 42.3088 85.5171C65.4521 85.3138 84.048 66.3877 83.8703 43.2446C83.8703 43.2446 83.8703 43.2446 83.8703 43.2192C84.0477 20.0505 65.4773 1.09895 42.3087 0.870361Z" fill="#FF2A7F"/>
<path opacity="0.35" d="M42.3087 0.870361C19.1658 1.07361 0.569884 20.0252 0.773135 43.1683V43.1937C0.773135 49.8242 2.29709 56.353 5.24423 62.2977C5.24423 62.3231 5.24423 62.3484 5.24423 62.3484L5.44748 62.4755C5.70154 63.2122 6.00628 63.9488 6.36197 64.6349C7.40363 66.6163 8.6738 68.4963 10.0963 70.2238C12.4843 73.1199 15.2789 75.6856 18.3779 77.8196C18.3272 77.8196 20.004 78.9119 20.6392 79.2929C27.1427 83.3577 34.6624 85.5171 42.3088 85.5171C65.4521 85.3138 84.048 66.3877 83.8703 43.2446C83.8703 43.2446 83.8703 43.2446 83.8703 43.2192C84.0477 20.0505 65.4773 1.09895 42.3087 0.870361Z" fill="url(#paint0_radial_64_10100)"/>
<path opacity="0.35" d="M42.3087 0.870361C19.1658 1.07361 0.569884 20.0252 0.773135 43.1683V43.1937C0.773135 49.8242 2.29709 56.353 5.24423 62.2977C5.24423 62.3231 5.24423 62.3484 5.24423 62.3484L5.44748 62.4755C5.70154 63.2122 6.00628 63.9488 6.36197 64.6349C7.40363 66.6163 8.6738 68.4963 10.0963 70.2238C12.4843 73.1199 15.2789 75.6856 18.3779 77.8196C18.3272 77.8196 20.004 78.9119 20.6392 79.2929C27.1427 83.3577 34.6624 85.5171 42.3088 85.5171C65.4521 85.3138 84.048 66.3877 83.8703 43.2446C83.8703 43.2446 83.8703 43.2446 83.8703 43.2192C84.0477 20.0505 65.4521 1.09895 42.3087 0.870361Z" fill="url(#paint1_radial_64_10100)"/>
<path opacity="0.75" d="M42.3087 0.870361C19.1658 1.07361 0.569884 20.0252 0.773135 43.1683V43.1937C0.773135 49.8242 2.29709 56.353 5.24423 62.2977C5.24423 62.3231 5.24423 62.3484 5.24423 62.3484L5.44748 62.4755C5.70154 63.2122 6.00628 63.9488 6.36197 64.6349C7.40363 66.6163 8.6738 68.4963 10.0963 70.2238C12.4843 73.1199 15.2789 75.6856 18.3779 77.8196C18.3272 77.8196 20.004 78.9119 20.6392 79.2929C27.1427 83.3577 34.6624 85.5171 42.3088 85.5171C65.4521 85.3138 84.048 66.3877 83.8703 43.2446C83.8703 43.2446 83.8703 43.2446 83.8703 43.2192C84.0477 20.0505 65.4521 1.09895 42.3087 0.870361Z" fill="url(#paint2_radial_64_10100)"/>
<path opacity="0.5" d="M17.4953 64.9832C17.1907 65.6438 16.9619 66.3297 16.7079 66.9903C15.9458 68.921 15.3869 70.9278 15.0313 72.9855C14.8789 73.9 14.8789 74.8401 15.0313 75.7545C15.1329 76.3896 15.4886 76.9231 16.0476 77.228C16.5557 77.5328 17.1144 77.6599 17.6988 77.6091C17.7495 77.5328 17.521 77.4821 17.4702 77.4058C16.9619 77.0757 16.5302 76.669 16.1491 76.1864C15.8188 75.6784 15.6663 75.094 15.6919 74.4844C15.7174 73.5444 15.8442 72.6044 16.073 71.6898C16.4031 70.191 16.8603 68.7429 17.2922 67.2695C17.3684 66.5075 17.4702 65.7453 17.5463 64.9832C17.521 64.9832 17.521 64.9832 17.4953 64.9832Z" fill="black"/>
<path opacity="0.5" d="M5.81197 63.6115C5.71063 63.7385 5.65982 63.8655 5.60886 64.018C5.5325 64.3481 5.55791 64.7038 5.65982 65.0341C5.9136 65.466 6.32039 65.7708 6.80297 65.8979C7.46353 66.101 8.12395 66.1772 8.80993 66.1519C9.49576 66.1519 10.1563 66.101 10.8421 66.0249C12.9763 65.72 15.0846 65.2119 17.1676 64.5513C17.2186 64.5007 17.3456 64.5261 17.371 64.4499C17.3203 64.3735 17.1676 64.4243 17.0915 64.399C16.0502 64.3735 15.0082 64.3735 13.9671 64.3228C12.7475 64.9072 11.452 65.2627 10.1057 65.4152C9.08925 65.5676 8.04788 65.4407 7.08229 65.0849C6.7266 64.907 6.42187 64.6023 6.24402 64.2466C6.1424 64.0432 6.01537 63.8146 5.81197 63.6115Z" fill="black"/>
<path opacity="0.5" d="M17.7236 65.1104C17.9269 65.6947 18.1809 66.2536 18.435 66.8125C20.264 71.1312 22.7283 75.1195 25.8021 78.6508C27.2249 80.2513 28.8508 81.6993 30.6037 82.9441C31.5182 83.6046 32.4582 84.2143 33.4235 84.7478C34.16 85.1289 34.9223 85.4337 35.7099 85.6371H35.8879C35.8114 85.7386 36.0658 85.7131 36.1417 85.764C36.9037 85.9672 37.6407 86.1959 38.4027 86.3483C39.495 86.5007 40.6128 86.5261 41.7053 86.4245C42.4166 86.3736 43.1026 86.2719 43.7884 86.1197C43.814 86.018 43.5852 86.0689 43.509 86.018C42.8995 85.9418 42.3153 85.764 41.7562 85.4846C41.2735 85.4846 40.7398 85.4591 40.2064 85.4337C38.2504 85.4591 36.3195 85.0018 34.5922 84.0874C31.9755 82.8425 29.6384 81.1149 27.6822 78.9558C25.4467 76.4661 23.4399 73.7733 21.7124 70.9025C21.2805 70.242 20.7724 69.6069 20.3405 68.9465C19.4516 67.7017 18.6131 66.4061 17.7747 65.136C17.7999 65.1104 17.7743 65.1104 17.7236 65.1104Z" fill="black"/>
<path opacity="0.5" d="M17.9029 65.0343C17.8521 65.1105 18.0046 65.1358 18.0299 65.1866C23.6949 69.6325 30.1225 73.0872 36.9561 75.3738C41.986 77.025 47.194 78.0158 52.4779 78.2952C54.1799 78.3969 55.8567 78.3714 57.5589 78.3206C59.0576 78.2444 60.5565 78.092 62.03 77.8634C62.03 77.838 62.0554 77.8125 62.0554 77.7872V77.838C62.1315 77.8886 62.2587 77.8125 62.3603 77.8125C65.6881 77.2536 68.8638 76.0342 71.6836 74.1544C74.1474 72.503 76.1293 70.2167 77.4501 67.5746C77.7296 66.9903 77.9837 66.3806 78.2125 65.7455C78.2633 65.6185 78.2633 65.6185 78.1871 65.72C77.7804 66.152 77.3485 66.5839 76.8912 66.965C76.6373 67.3459 76.3575 67.7524 76.0783 68.159C75.5958 68.8194 75.0876 69.4799 74.7573 69.9119C73.6649 71.0296 72.4709 72.0204 71.2007 72.9094C68.457 74.7131 65.3831 75.9834 62.182 76.6185C62.1566 76.6185 62.1058 76.6439 62.0806 76.6693C61.9792 76.6438 61.8519 76.7199 61.7504 76.7199C59.5658 77.1264 57.3301 77.3298 55.1201 77.3298C50.3185 77.2789 45.5426 76.5676 40.9189 75.1958C35.1521 73.5191 29.6141 71.182 24.3808 68.2096C23.949 67.9556 23.4663 67.7777 23.0091 67.5745C21.3069 66.8124 19.6304 65.974 18.0046 65.0341C17.9537 65.0343 17.9284 65.0088 17.9029 65.0343Z" fill="black"/>
<path opacity="0.5" d="M81.9467 30.739C81.896 30.8154 81.9721 30.9169 81.9975 31.0184C82.1755 31.5773 82.5056 32.8983 82.6582 33.5081C82.709 34.5242 82.5056 35.5151 82.074 36.4296C81.2102 38.1317 80.0163 39.6559 78.5682 40.9261C76.3072 42.9584 73.8176 44.7875 71.2009 46.3372C67.3904 48.6235 63.4274 50.6559 59.3624 52.4596C59.2865 52.5103 59.1847 52.5103 59.1337 52.5866C58.7275 52.7136 58.372 52.9168 57.9653 53.0694C54.6882 54.4918 51.3855 55.8384 48.0067 56.9814C42.4178 58.836 36.7022 60.3095 30.91 61.4273C27.5058 62.0878 24.0761 62.6467 20.6466 63.1039C19.6813 63.4342 18.6906 63.7136 17.7251 64.0185C17.6744 64.1201 17.9029 64.0438 17.9539 64.0438C22.9585 63.7644 27.9377 63.0531 32.8153 61.91C39.3443 60.4365 45.746 58.5058 51.9951 56.1432C54.8406 55.0762 57.6606 53.9076 60.455 52.6374C60.455 52.612 60.455 52.5866 60.4297 52.5866H60.582C65.1294 50.5543 69.499 48.1918 73.665 45.4989C76.0277 43.9746 78.2125 42.2217 80.1941 40.2149C81.4388 38.9954 82.4298 37.522 83.1411 35.9215C83.4712 35.134 83.5982 34.2703 83.5221 33.4319C83.4204 32.5427 83.014 31.7043 82.4298 31.044C82.2771 30.9423 82.1245 30.8406 81.9467 30.739Z" fill="black"/>
<path opacity="0.5" d="M0.806208 37.09C0.729989 37.2678 0.679464 37.4457 0.653769 37.6234C0.32363 38.9191 0.145786 40.24 0.171336 41.5611C0.145786 42.2723 0.171336 43.0091 0.272673 43.7205C0.247267 43.822 0.298368 43.8728 0.349037 43.8983C0.32363 43.8983 0.298368 43.949 0.32363 43.9745C0.780801 46.7944 1.87328 49.4873 3.49914 51.8497C5.5061 54.746 7.94483 57.3371 10.7392 59.5218C12.797 61.1477 14.9817 62.6465 17.2428 63.9421C17.3191 63.9676 17.3191 63.8913 17.2683 63.8659C15.9217 62.7735 14.6007 61.605 13.3304 60.4363C12.4669 59.6742 11.5777 58.9882 10.7138 58.2262C8.09712 56.0161 5.78543 53.4502 3.9055 50.5795C2.73681 48.7758 1.89854 46.7688 1.3907 44.6858C1.31419 44.4317 1.28907 44.203 1.21285 43.949C1.18716 43.949 1.1619 43.9235 1.13635 43.9235H1.21285C1.21285 43.7203 1.13635 43.5171 1.13635 43.3138C0.958502 41.9929 0.933095 40.6718 1.06013 39.3508C1.06013 38.9698 0.983764 38.5887 0.958502 38.2076C0.933095 37.8265 0.907833 37.4963 0.882283 37.1406C0.857165 37.1153 0.831758 37.09 0.806208 37.09Z" fill="black"/>
<path opacity="0.5" d="M24.8627 4.57214C23.3132 4.8768 21.8398 5.43574 20.4679 6.19786C20.4679 6.2232 20.4933 6.24868 20.5187 6.24868H20.3918C17.9022 7.69677 15.8192 9.72899 14.244 12.1425C12.5167 14.8099 11.2463 17.7568 10.4589 20.8562C9.84914 23.1933 9.44249 25.6066 9.23953 28.02C9.23953 28.0708 9.23953 28.0708 9.26493 28.0962H9.23953C9.16316 28.8584 9.1379 29.5951 9.1125 30.3574C9.08695 31.7292 9.08695 33.1009 9.1379 34.4727C9.26493 37.2925 9.62062 40.1124 10.1542 42.9069H10.205H10.1542C10.2304 43.4403 10.3828 43.9739 10.4844 44.5329C11.7545 50.2995 13.787 55.8886 16.4796 61.1471C16.7592 61.6806 17.0133 62.2143 17.3182 62.7223C17.4197 62.7223 17.3182 62.5952 17.3182 62.5444C16.6068 60.6646 15.9715 58.7337 15.4638 56.7777C15.1589 55.9139 14.7778 55.0755 14.4728 54.2118C13.1264 50.5535 12.0848 46.7685 11.3991 42.9324H11.3481H11.3734C11.2211 41.9925 11.0686 41.0525 10.9416 40.1127C10.5605 37.5214 10.3828 34.9047 10.4081 32.2881C10.4081 30.9163 10.4589 29.5191 10.5859 28.1472C10.5859 28.0964 10.5351 28.0964 10.5097 28.0964H10.5859C10.6621 27.9696 10.6113 27.8171 10.6369 27.69C10.9924 23.3966 12.1611 19.205 14.041 15.3436C15.5906 12.2442 17.8262 9.55136 20.5698 7.46818C21.1287 7.03628 21.7131 6.6808 22.272 6.29963H22.2976C22.7292 6.0966 23.1103 5.81713 23.5422 5.61381C23.8977 5.46137 24.2026 5.25812 24.5076 5.02946C24.6601 4.9025 24.8124 4.77547 24.9394 4.64843C24.9134 4.59748 24.888 4.57214 24.8627 4.57214ZM20.7475 6.24868H20.7727H20.6203C20.671 6.24868 20.7218 6.24868 20.7475 6.24868Z" fill="black"/>
<path opacity="0.5" d="M55.8818 2.76872C55.0178 2.79405 54.1797 2.97183 53.3665 3.2767C51.4107 4.0643 49.607 5.15663 47.981 6.5031C47.0665 7.23981 46.2027 8.02727 45.3391 8.84034C45.3391 8.86568 45.3391 8.86568 45.3645 8.86568H45.2882C43.8402 10.2884 42.4684 11.7619 41.1474 13.286C38.8355 16.0043 36.7015 18.824 34.72 21.771C33.3483 23.8033 32.0527 25.9119 30.8078 28.0204C30.8078 28.0459 30.8332 28.0712 30.8332 28.0712H30.757C28.0133 32.8472 25.5745 37.801 23.466 42.8818L23.4914 42.9072H23.466C21.7129 47.1243 20.2652 51.4429 19.0966 55.8379C18.4869 58.1752 17.9533 60.563 17.5977 62.9511C17.6739 63.0272 17.6993 62.824 17.7247 62.7986C18.2071 61.7824 18.69 60.7663 19.1727 59.7247C19.4266 59.0642 19.6045 58.4038 19.8331 57.7432C21.2557 53.2721 22.8818 48.8517 24.6601 44.4821C24.8633 43.9742 25.092 43.4406 25.2952 42.9326L25.2697 42.9072H25.2952C25.3967 42.704 25.4985 42.4753 25.6001 42.2466C27.6323 37.4452 29.8933 32.7455 32.4083 28.1727C32.4338 28.1473 32.4338 28.122 32.4338 28.0965C32.6117 27.8679 32.7132 27.5884 32.8655 27.3345C35.6348 22.3044 38.9117 17.5793 42.6461 13.2352C43.9925 11.7109 45.4405 10.2628 46.9395 8.91642C46.9395 8.89101 46.9139 8.89101 46.9139 8.86568H47.0155C48.6161 7.44306 50.3943 6.19815 52.2998 5.20752C53.7222 4.44525 55.2973 4.01349 56.8979 3.9626C57.787 3.9626 58.6761 4.19119 59.4636 4.62317C59.7177 4.7502 59.9462 4.8519 60.2003 4.95345C60.2767 4.90271 60.1493 4.8519 60.1239 4.80102C59.7938 4.3437 59.3873 3.96275 58.9047 3.65787C58.4474 3.32759 57.9393 3.07352 57.3805 2.94649C56.898 2.79405 56.3899 2.74324 55.8818 2.76872Z" fill="black"/>
<path d="M81.9144 30.7174C81.965 30.9207 82.0157 31.1747 82.0921 31.378C83.1334 32.4958 83.4385 34.0963 82.9303 35.5189C81.6349 38.2879 79.6786 40.6506 77.1892 42.4288C71.7778 46.4935 65.8842 49.8722 59.6602 52.5397C49.8541 56.96 39.5655 60.2372 29.0227 62.3457C25.7457 62.9807 22.443 63.4127 19.1149 63.6413C18.8863 63.7176 17.8448 64.0224 17.5654 64.0986C20.5377 63.9969 23.4845 63.6921 26.406 63.1841C36.7455 61.4057 46.8561 58.459 56.5352 54.3943C63.3691 51.676 69.8472 48.1956 75.8932 44.0039C78.764 42.124 81.1522 39.6089 82.8794 36.6367C83.667 35.2649 83.7686 33.5883 83.1588 32.1402C82.9051 31.505 82.4732 30.9968 81.9144 30.7174Z" fill="#FF5599"/>
<path d="M55.8991 2.74703C53.1048 3.12812 50.4882 4.29667 48.4051 6.1766C45.2802 8.76777 42.4096 11.664 39.8691 14.8141C33.4673 22.8418 28.1833 31.6823 24.1949 41.1582C21.2227 47.9157 19.0631 55.0034 17.7169 62.2436C17.7169 62.3198 17.5898 63.1328 17.5898 63.1328C17.6661 63.0057 18.098 62.0657 18.174 61.888C18.6568 59.322 19.2664 56.7563 20.0032 54.2413C22.9246 44.8672 26.9892 35.8488 32.0448 27.44C35.9822 20.5554 40.8091 14.2297 46.4488 8.64073C48.7352 6.27816 51.5806 4.50007 54.7051 3.50922C56.3818 3.07731 58.1601 3.50922 59.4811 4.6271C59.8622 4.80487 60.0909 4.88117 60.3194 4.98272C60.04 4.60162 59.7098 4.2206 59.3541 3.91587C58.3635 3.15353 57.144 2.72169 55.8991 2.74703Z" fill="#FF5599"/>
<path d="M24.959 4.55103C20.3863 5.54166 16.4486 8.36148 14.0353 12.3754C10.8597 17.7865 9.15766 23.9342 9.1067 30.209C8.90345 41.1583 11.5202 51.955 16.7026 61.5832C17.6173 63.2854 17.8458 63.8696 16.906 61.4562C16.7535 60.999 16.4486 60.0842 16.4486 60.0842C15.5849 58.2552 14.7466 56.5278 14.0605 54.6733C11.2662 47.7633 9.76741 40.4217 9.58942 32.9782C9.46239 28.0242 10.199 23.0703 11.825 18.396C13.3747 13.4423 16.6518 9.19975 21.0721 6.43081C22.139 5.79565 23.3079 5.31293 24.5017 4.93183L24.959 4.55103Z" fill="#FF5599"/>
<path d="M0.722296 37.3472C0.188762 39.3033 0.0109173 41.3611 0.188762 43.3934C0.823778 47.6867 2.75466 51.7006 5.75219 54.8761C8.7754 58.2295 12.3066 61.1001 16.2188 63.3865C16.3202 63.4628 16.9554 63.8184 17.5652 64.1741C16.1171 62.98 15.7616 62.6498 15.101 62.0908C13.4497 60.9985 11.8491 59.8298 10.3505 58.5597C6.08261 55.308 2.8817 50.8622 1.15421 45.7814C0.468232 43.3171 0.392158 40.726 0.925548 38.211C0.900141 37.9822 0.849328 36.9915 0.849328 36.9915L0.722296 37.3472Z" fill="#FF5599"/>
<path d="M5.7024 63.7675C5.34656 64.4534 5.60077 65.2918 6.2866 65.6474C6.33741 65.6728 6.38808 65.6982 6.46444 65.7236C8.14112 66.2316 9.94483 66.257 11.6469 65.8505C13.6537 65.4948 15.6099 65.0123 17.5406 64.3517C17.3883 64.3262 17.2359 64.3262 17.0835 64.3517C14.2382 65.19 11.2911 65.6726 8.34437 65.7236C6.76918 65.6982 6.00727 65.1139 5.85498 64.1739C5.82943 63.9961 5.82943 63.7928 5.85498 63.6151C5.85498 63.5896 5.82943 63.5642 5.80417 63.5134L5.7024 63.7675Z" fill="#FF5599"/>
<path d="M17.5654 64.8092C17.7179 65.1902 18.0226 65.9014 18.0736 66.0031C20.2581 71.6936 23.6878 76.7999 28.1081 80.9916C30.3945 83.2273 33.1891 84.8785 36.263 85.8184C37.5584 86.2756 38.9051 86.5042 40.2769 86.5042C41.4962 86.5297 42.6902 86.3773 43.8587 86.0977C43.681 86.0724 42.9443 85.9453 42.919 85.9453C42.055 86.0724 41.1915 86.1232 40.3277 86.0724C37.8634 85.9962 35.4501 85.3101 33.3161 84.0654C27.6509 80.6613 23.1289 75.6567 20.2838 69.7121C19.8774 68.9245 19.0135 67.0955 18.8612 66.8414C18.4291 66.1303 17.8956 65.2919 17.5654 64.8092Z" fill="#FF5599"/>
<path d="M17.5654 64.8092C17.9716 65.1902 19.0389 65.9778 19.4708 66.2826C28.3369 72.9639 38.9051 77.0539 49.9557 78.1209C53.1566 78.4766 56.3831 78.4766 59.5837 78.1972C65.0204 77.9431 70.1773 75.8091 74.1912 72.1509C76.0456 70.3473 77.4681 68.1116 78.2812 65.6475C78.1542 65.7744 77.7731 66.2063 77.6461 66.3334C76.8331 67.9846 75.8171 69.5342 74.5722 70.8808C70.5837 74.8693 65.2994 77.2825 59.6853 77.689C50.8448 78.4765 41.9788 77.0539 33.8239 73.5735C28.7431 71.4904 23.891 68.8992 19.318 65.8507C19.1405 65.6983 18.1496 65.1648 17.5654 64.8092Z" fill="#FF5599"/>
<path d="M17.5654 64.8092C16.5239 67.1716 15.7364 69.6359 15.1773 72.151C14.8217 73.5737 14.8472 75.0471 15.2283 76.4443C15.7364 77.3081 16.7525 77.7909 17.7432 77.6383C17.6418 77.5621 17.4131 77.4096 17.3876 77.4096C17.0828 77.3589 16.7779 77.2573 16.4986 77.1303C15.6347 76.5968 15.1773 75.606 15.2793 74.6153C15.2793 73.6245 15.4063 72.6592 15.6349 71.6938C16.0413 69.8901 16.6002 68.1372 17.3369 66.4605C17.4131 65.8762 17.4892 65.3427 17.5654 64.8092Z" fill="#FF5599"/>
<path d="M0.888204 36.797C-2.97328 49.0925 8.48414 59.0511 17.5534 64.1826C15.8003 64.1065 5.94364 64.4367 3.75898 60.7785C-0.509147 51.7855 -0.356853 39.1088 0.888204 36.797Z" fill="#DEDEDE"/>
<path d="M81.9229 31.4622C83.1678 32.0464 83.5489 34.1295 83.5489 34.6375C83.3456 46.3489 41.9624 63.8778 17.5488 64.7923C34.0106 74.573 64.4701 78.5106 77.5024 66.3927C81.1608 62.9886 87.0801 51.0488 83.4978 34.4344C83.5233 33.2404 82.9388 32.1227 81.9229 31.4622Z" fill="#DEDEDE"/>
<path d="M17.5732 63.1414C35.5848 58.0859 74.7072 37.0005 80.6264 26.4323C80.8551 26.0258 80.9312 25.5686 80.8551 25.1113C80.8043 23.2314 73.9959 11.7487 64.571 6.51547C64.1898 6.38844 63.7834 6.38844 63.4023 6.49C59.414 7.32826 52.2244 12.9681 43.9936 22.6217C33.3239 34.8156 24.4322 48.4577 17.5732 63.1414Z" fill="#DEDEDE"/>
<path d="M78.29 65.5799C75.9785 72.2865 69.2208 78.282 55.8328 78.3328C41.8859 78.3328 28.3964 73.5568 17.5488 64.7925C22.8329 72.9471 31.2162 85.1411 45.5949 86.2589C50.6249 86.64 60.1007 83.0835 64.2923 80.4161C71.4312 75.8941 77.3756 69.797 78.29 65.5799Z" fill="#DEDEDE"/>
<path d="M43.8935 86.0813C43.3854 86.2083 42.8519 86.3099 42.3439 86.3606C40.8449 86.564 39.2954 86.5131 37.7966 86.2083C35.3324 85.7764 33.0206 84.7348 31.0392 83.2359C22.6812 77.5963 18.9213 67.8664 17.5495 64.7925C16.5079 72.058 16.9906 78.5107 20.6234 80.5939C24.7134 83.0327 29.2102 84.7856 33.8843 85.7509C35.4849 86.1066 37.1106 86.3352 38.7363 86.4368C39.27 86.4877 39.8289 86.4877 40.388 86.4623C41.5564 86.4877 42.7502 86.3354 43.8935 86.0813Z" fill="#DEDEDE"/>
<path d="M17.752 77.6215C16.8883 77.7486 16.0245 77.4184 15.4403 76.7579C14.983 75.9196 14.8053 74.9288 14.9322 73.9887C15.3387 70.8132 16.2278 67.7139 17.5488 64.8179C14.7798 65.7325 7.46373 67.7395 5.78676 65.6561C5.81231 65.707 5.60891 65.4022 5.76121 65.6561C7.56506 68.6031 9.67365 71.3467 12.0616 73.8109C12.9254 74.7509 13.8399 75.6146 14.8307 76.4276C15.5674 77.2403 16.6343 77.6724 17.752 77.6215Z" fill="#DEDEDE"/>
<path d="M24.969 4.5592C8.58319 7.76012 2.89259 36.5684 17.5763 63.1666C7.491 55.1136 1.13998 45.6632 0.834961 35.7811C2.20691 19.5477 18.3639 4.99111 24.969 4.5592Z" fill="#DEDEDE"/>
<path d="M60.3065 5.01616C55.7846 -1.15701 46.131 5.87991 36.3758 19.395C28.2465 30.6489 19.9141 48 17.5515 63.141C11.7592 48.9146 8.40611 17.8961 24.9439 4.55885C36.325 -3.34182 57.131 1.02772 59.7985 4.45729C59.9508 4.60966 59.7221 4.33026 60.3065 5.01616Z" fill="#DEDEDE"/>
<path d="M41.6394 0.113579C35.7457 -0.0642658 29.9282 1.51071 24.9487 4.63541C8.41059 18.2521 11.7641 49.8802 17.5563 64.3607C19.8934 48.9404 28.2514 31.2336 36.3806 19.7509C44.7386 7.96336 53.0205 1.00273 58.0505 3.18746C52.868 1.02807 47.2789 -0.0389315 41.6394 0.113579ZM58.0505 3.21294C58.4823 3.44153 58.9145 3.69559 59.2954 4.0004C58.9396 3.69559 58.5077 3.41605 58.0505 3.21294ZM17.5563 64.3861C35.568 59.2291 74.6902 37.7371 80.6092 26.9658C80.8382 26.5593 80.9142 26.0765 80.8382 25.6192C80.7872 23.714 73.979 11.9773 64.5541 6.64237C64.173 6.51534 63.7666 6.51534 63.3856 6.6169C59.3969 7.48064 52.2076 13.222 43.9767 23.0533C33.3068 35.527 24.3901 49.4231 17.5563 64.3861ZM17.5563 64.3861C34.0181 74.3698 64.4777 78.3582 77.5101 66.0119C77.7894 65.7579 78.0437 65.4784 78.2721 65.199C81.9049 60.9056 86.8078 49.2706 83.5307 33.52C83.5307 33.5454 83.5307 33.5962 83.5307 33.6217C83.3528 45.5617 41.9697 63.4208 17.5563 64.3861ZM17.5563 64.3861C22.6116 72.363 30.5377 84.1251 43.875 86.0812C44.4338 86.1574 45.0182 86.2336 45.6024 86.2844C50.6324 86.6909 60.1081 83.0327 64.2999 80.3398C71.4385 75.7162 77.383 69.5431 78.2975 65.2243C75.9858 72.0581 69.2029 78.155 55.8401 78.2312C41.8679 78.1805 28.3275 73.3029 17.5563 64.3861ZM17.5563 64.3861C16.5148 71.8041 16.9975 78.3582 20.6302 80.5178C24.7203 83.0074 29.2168 84.7855 33.8912 85.7765C35.4916 86.1321 37.1175 86.3607 38.7432 86.4877C39.2768 86.5384 39.8357 86.5384 40.3946 86.5132C39.5308 86.5385 38.6416 86.4623 37.8033 86.2591C35.3391 85.8018 33.0274 84.7603 31.0458 83.236C22.6878 77.4184 18.9534 67.5108 17.5563 64.3861ZM17.5563 64.3861C14.7872 65.326 7.47098 67.3583 5.79416 65.2497C5.81956 65.2752 5.61631 64.9704 5.76875 65.2497C7.54706 68.2475 9.6809 71.0419 12.069 73.5568C12.9328 74.4968 13.8473 75.386 14.8127 76.2242C15.1938 76.5545 15.5748 76.834 16.0065 77.088C15.7777 76.961 15.5748 76.7831 15.3969 76.5798C14.9397 75.7162 14.7618 74.7254 14.8886 73.7601C15.346 70.5084 16.2353 67.3583 17.5563 64.3861ZM17.5563 64.3861C9.83349 59.9403 0.408435 51.9379 0.129109 41.9287C0.00207693 48.4322 1.22144 54.9102 3.76193 60.9056C5.9466 64.64 15.8033 64.3099 17.5563 64.3861ZM17.5563 64.3861C2.87257 37.3052 8.56331 7.88714 24.9743 4.66089C18.3944 5.09273 2.23755 19.9542 0.840344 36.4668C0.840344 36.5176 0.840344 36.543 0.840344 36.5938C0.535323 37.4321 0.357478 38.2959 0.281403 39.185C0.408435 38.3467 0.586424 37.5083 0.840344 36.6699C1.22115 46.6541 7.54706 56.2059 17.5563 64.3861ZM0.281259 39.1597C0.154227 40.0742 0.103414 41.0143 0.12882 41.9287C0.154227 40.8872 0.205184 39.9728 0.281259 39.1597ZM43.875 86.0557C43.1384 86.2336 42.376 86.3607 41.614 86.4115C41.8679 86.3861 42.0966 86.3607 42.3252 86.3353C42.8586 86.2844 43.3668 86.1827 43.875 86.0557ZM83.5564 33.52C83.5307 33.1389 83.4547 32.7579 83.3528 32.4022C83.4546 32.7326 83.5054 33.0627 83.5564 33.4183V33.52ZM59.4222 4.10202C59.4733 4.15276 59.5492 4.22905 59.6255 4.2798C59.5238 4.22905 59.4733 4.15276 59.4222 4.10202ZM59.7018 4.35616C59.7526 4.40683 59.8034 4.45764 59.8541 4.53386C59.981 4.68637 59.7526 4.40697 60.3368 5.11821C60.1334 4.86414 59.905 4.61008 59.7018 4.35616ZM82.159 30.4969C82.4131 30.7001 82.6419 30.9288 82.8194 31.2083C82.6419 30.9288 82.4131 30.7001 82.159 30.4969ZM82.8194 31.2083C82.8451 31.2589 82.8704 31.3098 82.9212 31.3606C82.8704 31.3098 82.8448 31.2589 82.8194 31.2083ZM82.9974 31.5131C83.0482 31.5892 83.0735 31.6654 83.1243 31.7671C83.0735 31.6909 83.0227 31.6146 82.9974 31.5131ZM83.1245 31.7671C83.1497 31.8433 83.2005 31.945 83.2261 32.0212C83.175 31.945 83.1496 31.8433 83.1245 31.7671ZM83.2261 32.0212C83.2515 32.0974 83.2767 32.1736 83.3023 32.2498C83.2515 32.1736 83.2261 32.0974 83.2261 32.0212ZM16.3876 77.2406C16.6925 77.3929 17.0228 77.4691 17.3531 77.4691C17.0228 77.4693 16.6925 77.3931 16.3876 77.2406Z" fill="url(#paint3_radial_64_10100)"/>
<path opacity="0.5" d="M41.6394 0.113579C35.7457 -0.0642658 29.9282 1.51071 24.9487 4.63541C8.41059 18.2521 11.7641 49.8802 17.5563 64.3607C19.8934 48.9404 28.2514 31.2336 36.3806 19.7509C44.7386 7.96336 53.0205 1.00273 58.0505 3.18746C52.868 1.02807 47.2789 -0.0389315 41.6394 0.113579ZM58.0505 3.21294C58.4823 3.44153 58.9145 3.69559 59.2954 4.0004C58.9396 3.69559 58.5077 3.41605 58.0505 3.21294ZM17.5563 64.3861C35.568 59.2291 74.6902 37.7371 80.6092 26.9658C80.8382 26.5593 80.9142 26.0765 80.8382 25.6192C80.7872 23.714 73.979 11.9773 64.5541 6.64237C64.173 6.51534 63.7666 6.51534 63.3856 6.6169C59.3969 7.48064 52.2076 13.222 43.9767 23.0533C33.3068 35.527 24.3901 49.4231 17.5563 64.3861ZM17.5563 64.3861C34.0181 74.3698 64.4777 78.3582 77.5101 66.0119C77.7894 65.7579 78.0437 65.4784 78.2721 65.199C81.9049 60.9056 86.8078 49.2706 83.5307 33.52C83.5307 33.5454 83.5307 33.5962 83.5307 33.6217C83.3528 45.5617 41.9697 63.4208 17.5563 64.3861ZM17.5563 64.3861C22.6116 72.363 30.5377 84.1251 43.875 86.0812C44.4338 86.1574 45.0182 86.2336 45.6024 86.2844C50.6324 86.6909 60.1081 83.0327 64.2999 80.3398C71.4385 75.7162 77.383 69.5431 78.2975 65.2243C75.9858 72.0581 69.2029 78.155 55.8401 78.2312C41.8679 78.1805 28.3275 73.3029 17.5563 64.3861ZM17.5563 64.3861C16.5148 71.8041 16.9975 78.3582 20.6302 80.5178C24.7203 83.0074 29.2168 84.7855 33.8912 85.7765C35.4916 86.1321 37.1175 86.3607 38.7432 86.4877C39.2768 86.5384 39.8357 86.5384 40.3946 86.5132C39.5308 86.5385 38.6416 86.4623 37.8033 86.2591C35.3391 85.8018 33.0274 84.7603 31.0458 83.236C22.6878 77.4184 18.9534 67.5108 17.5563 64.3861ZM17.5563 64.3861C14.7872 65.326 7.47098 67.3583 5.79416 65.2497C5.81956 65.2752 5.61631 64.9704 5.76875 65.2497C7.54706 68.2475 9.6809 71.0419 12.069 73.5568C12.9328 74.4968 13.8473 75.386 14.8127 76.2242C15.1938 76.5545 15.5748 76.834 16.0065 77.088C15.7777 76.961 15.5748 76.7831 15.3969 76.5798C14.9397 75.7162 14.7618 74.7254 14.8886 73.7601C15.346 70.5084 16.2353 67.3583 17.5563 64.3861ZM17.5563 64.3861C9.83349 59.9403 0.408435 51.9379 0.129109 41.9287C0.00207693 48.4322 1.22144 54.9102 3.76193 60.9056C5.9466 64.64 15.8033 64.3099 17.5563 64.3861ZM17.5563 64.3861C2.87257 37.3052 8.56331 7.88714 24.9743 4.66089C18.3944 5.09273 2.23755 19.9542 0.840344 36.4668C0.840344 36.5176 0.840344 36.543 0.840344 36.5938C0.535323 37.4321 0.357478 38.2959 0.281403 39.185C0.408435 38.3467 0.586424 37.5083 0.840344 36.6699C1.22115 46.6541 7.54706 56.2059 17.5563 64.3861ZM0.281259 39.1597C0.154227 40.0742 0.103414 41.0143 0.12882 41.9287C0.154227 40.8872 0.205184 39.9728 0.281259 39.1597ZM43.875 86.0557C43.1384 86.2336 42.376 86.3607 41.614 86.4115C41.8679 86.3861 42.0966 86.3607 42.3252 86.3353C42.8586 86.2844 43.3668 86.1827 43.875 86.0557ZM83.5564 33.52C83.5307 33.1389 83.4547 32.7579 83.3528 32.4022C83.4546 32.7326 83.5054 33.0627 83.5564 33.4183V33.52ZM59.4222 4.10202C59.4733 4.15276 59.5492 4.22905 59.6255 4.2798C59.5238 4.22905 59.4733 4.15276 59.4222 4.10202ZM59.7018 4.35616C59.7526 4.40683 59.8034 4.45764 59.8541 4.53386C59.981 4.68637 59.7526 4.40697 60.3368 5.11821C60.1334 4.86414 59.905 4.61008 59.7018 4.35616ZM82.159 30.4969C82.4131 30.7001 82.6419 30.9288 82.8194 31.2083C82.6419 30.9288 82.4131 30.7001 82.159 30.4969ZM82.8194 31.2083C82.8451 31.2589 82.8704 31.3098 82.9212 31.3606C82.8704 31.3098 82.8448 31.2589 82.8194 31.2083ZM82.9974 31.5131C83.0482 31.5892 83.0735 31.6654 83.1243 31.7671C83.0735 31.6909 83.0227 31.6146 82.9974 31.5131ZM83.1245 31.7671C83.1497 31.8433 83.2005 31.945 83.2261 32.0212C83.175 31.945 83.1496 31.8433 83.1245 31.7671ZM83.2261 32.0212C83.2515 32.0974 83.2767 32.1736 83.3023 32.2498C83.2515 32.1736 83.2261 32.0974 83.2261 32.0212ZM16.3876 77.2406C16.6925 77.3929 17.0228 77.4691 17.3531 77.4691C17.0228 77.4693 16.6925 77.3931 16.3876 77.2406Z" fill="url(#paint4_radial_64_10100)"/>
<path d="M115.825 30.9C119.559 30.5444 123.319 30.8238 126.952 31.7131C126.774 33.2881 126.622 34.8632 126.419 36.4128C124.361 36.2097 122.278 36.0064 120.22 35.8031C119.179 35.6 118.112 35.6762 117.095 36.0064C116.384 36.3366 115.876 36.9718 115.698 37.7339C115.393 38.5468 115.444 39.4613 115.8 40.2489C116.384 40.9601 117.197 41.4682 118.086 41.6968C120.627 42.1795 123.116 43.0179 125.428 44.1864C126.317 44.7708 127.003 45.5836 127.435 46.5746C128.096 48.3528 128.223 50.3089 127.765 52.1635C127.638 52.824 127.409 53.459 127.13 54.0688C126.343 55.8217 124.844 57.1681 123.015 57.8032C120.906 58.489 118.645 58.6669 116.46 58.2858L109.55 57.2443C109.855 55.5168 110.16 53.7639 110.491 52.011C113.31 52.57 116.181 52.9509 119.077 53.1288C119.763 53.205 120.424 53.0018 120.957 52.57C121.465 51.9603 121.77 51.198 121.795 50.4106C121.922 49.6739 121.668 48.9118 121.084 48.4036C120.119 47.7939 119.052 47.3875 117.934 47.2096C115.698 46.9302 113.539 46.0664 111.71 44.7453C110.236 43.272 109.423 41.265 109.449 39.1819C109.347 37.429 109.83 35.7016 110.821 34.2789C111.888 32.4497 113.742 31.2303 115.825 30.9Z" fill="#D5307F"/>
<path d="M137.417 31.2306H145.344C148.087 40.1983 150.806 49.1913 153.549 58.1591C151.44 58.1335 149.332 58.1844 147.249 58.1335C146.766 56.3045 146.258 54.5007 145.801 52.6971H136.986L135.512 58.1589H129.212C131.956 49.1658 134.674 40.1983 137.417 31.2306V31.2306ZM138.256 47.9973H144.531C143.489 44.1359 142.447 40.2491 141.406 36.3623C140.314 40.2237 139.297 44.1106 138.256 47.9973Z" fill="#D5307F"/>
<path d="M151.771 31.2306H172.374V36.6416H165.134C165.109 43.8056 165.134 50.9697 165.134 58.1591H159.012V36.6416H151.772L151.771 31.2306Z" fill="#D5307F"/>
<path d="M186.32 32.1959C186.473 32.1197 186.625 32.069 186.803 32.0942H192.366V58.1336C190.41 58.1336 188.454 58.1589 186.498 58.1082V38.5723L182.281 41.1636C181.316 39.5629 180.35 37.9625 179.385 36.3876C181.671 35.0158 183.983 33.6185 186.32 32.1959Z" fill="#D5307F"/>
<path d="M172.957 51.3253H179.105V58.159H172.957V51.3253Z" fill="#D5307F"/>
<defs>
<radialGradient id="paint0_radial_64_10100" cx="0" cy="0" r="1" gradientTransform="matrix(33.8678 20.5366 23.1578 -31.1628 -943.332 2697.93)" gradientUnits="userSpaceOnUse">
<stop/>
<stop offset="1" stop-opacity="0"/>
</radialGradient>
<radialGradient id="paint1_radial_64_10100" cx="0" cy="0" r="1" gradientTransform="matrix(30.3786 24.6812 27.7286 -28.0559 -1387.96 3221.1)" gradientUnits="userSpaceOnUse">
<stop stop-opacity="0"/>
<stop offset="1"/>
</radialGradient>
<radialGradient id="paint2_radial_64_10100" cx="0" cy="0" r="1" gradientTransform="matrix(26.2338 25.8173 31.8173 -22.0865 -1914.54 3365.58)" gradientUnits="userSpaceOnUse">
<stop stop-color="white"/>
<stop offset="1" stop-color="white" stop-opacity="0"/>
</radialGradient>
<radialGradient id="paint3_radial_64_10100" cx="0" cy="0" r="1" gradientUnits="userSpaceOnUse" gradientTransform="translate(-73.0092 92.1104) scale(41.2952 42.2708)">
<stop stop-color="white"/>
<stop offset="1" stop-color="#E6E6E6" stop-opacity="0"/>
</radialGradient>
<radialGradient id="paint4_radial_64_10100" cx="0" cy="0" r="1" gradientTransform="matrix(22.3558 -50.3665 -35.5185 -33.1753 -2447.34 -6248.08)" gradientUnits="userSpaceOnUse">
<stop stop-color="white" stop-opacity="0"/>
<stop offset="1" stop-color="white"/>
</radialGradient>
</defs>
</svg>
