<svg width="192" height="88" viewBox="0 0 192 88" fill="none" xmlns="http://www.w3.org/2000/svg">
<path d="M18.5704 78.2105H17.9861C17.6813 78.2105 17.4272 78.3629 17.2748 78.617L16.1824 80.7763V85.2982L19.2817 79.3283C19.3579 79.125 19.4088 78.9726 19.4088 78.7948C19.4088 78.5915 19.3325 78.4391 19.2055 78.3629C19.0531 78.2613 18.8244 78.2105 18.5704 78.2105ZM1.42261 78.2105H0.838267C0.279398 78.2105 0 78.4137 0 78.8202C0 78.9726 0.0508128 79.1504 0.127032 79.3537L3.93756 86.9241C4.06459 87.1527 4.24244 87.3306 4.4965 87.4576C4.72516 87.5846 4.97922 87.6354 5.25862 87.6354C5.53809 87.6354 5.79215 87.5846 6.04615 87.4576C6.2494 87.3306 6.42724 87.1781 6.5542 86.9749L9.70438 81.132L12.8037 86.9749C12.9052 87.1782 13.0831 87.356 13.3117 87.4576C13.515 87.5338 13.769 87.61 14.0484 87.61C14.3025 87.61 14.582 87.5338 14.8106 87.4322C15.0646 87.3052 15.2425 87.1527 15.3441 86.9495L15.6998 86.289V81.7671L14.0993 84.9172L10.9491 79.0997C10.8221 78.8456 10.6697 78.6932 10.4411 78.5662C10.2378 78.4645 9.98378 78.3883 9.75512 78.3883C9.47572 78.3883 9.24706 78.4645 9.04381 78.5916C8.81516 78.6932 8.63738 78.871 8.53576 79.0997L5.36017 84.9172L2.15933 78.6678L1.85445 78.3629L1.42261 78.2105ZM16.1824 80.7763L15.6997 81.7417V86.2636L16.1824 85.3236V80.7763ZM16.1824 80.7763L15.6997 81.7417V86.2636L16.1824 85.3236V80.7763ZM29.1385 78.2105H25.2009C23.6513 78.2105 22.4318 78.4645 21.4919 79.0234C20.6027 79.5569 20.1455 80.319 20.1455 81.2336V84.7394C20.1455 85.5523 20.5265 86.2636 21.314 86.8987C21.6697 87.1781 22.1778 87.4068 22.8383 87.5592C23.4988 87.6862 24.3118 87.7878 25.2771 87.7878H26.6235C27.1571 87.7878 27.4111 87.5084 27.4111 86.9749V86.7971C27.4111 86.2636 27.157 86.0096 26.6235 86.0096H25.0485C23.2194 86.0096 22.3049 85.349 22.3049 84.028H32.7713C32.9746 84.028 33.127 83.9518 33.2033 83.774C33.3048 83.5962 33.3556 83.4183 33.3556 83.1643V80.8525C33.3556 80.0142 32.9237 79.3283 32.0601 78.8456C31.2725 78.4137 30.3071 78.2105 29.1385 78.2105ZM22.254 82.1989V81.0812C22.254 80.7255 22.5588 80.4461 23.2194 80.2174C23.7783 80.0396 24.5149 79.9634 25.4295 79.9634H28.5034C29.2656 79.9634 29.9261 80.0396 30.4849 80.2682C31.0692 80.4715 31.3233 80.7001 31.3233 80.9795V82.1735L22.254 82.1989ZM37.1662 75.6193H36.6327C36.0992 75.6193 35.8453 75.8733 35.8453 76.3814V86.9495C35.8453 87.483 36.0992 87.7624 36.6327 87.7624H37.1662C37.6997 87.7624 37.9284 87.483 37.9284 86.9495V76.3814C37.9283 75.8479 37.6997 75.6193 37.1662 75.6193V75.6193ZM42.6281 75.6193H42.0692C41.5357 75.6193 41.2817 75.8733 41.2817 76.3814V78.2613H40.545C40.0115 78.2613 39.7575 78.5153 39.7575 79.0488V79.2521C39.7575 79.7855 40.0115 80.0396 40.545 80.0396H41.2817V86.9749C41.2817 87.5084 41.5358 87.7879 42.0692 87.7879H42.6281C43.1616 87.7879 43.3903 87.5084 43.3903 86.9749V80.0396H46.7182C47.2517 80.0396 47.5057 79.7856 47.5057 79.2521V79.0488C47.5057 78.5153 47.2517 78.2613 46.7182 78.2613H43.3903V76.3814C43.3903 75.8479 43.1616 75.6193 42.6281 75.6193V75.6193ZM67.5496 75.6193H67.0161C66.508 75.6193 66.2286 75.8733 66.2286 76.4068V78.2867H59.9538C58.2516 78.2867 56.956 78.5916 56.1178 79.1504C55.3556 79.6585 54.9745 80.3444 54.9745 81.259L54.9491 85.0696C54.9238 85.8572 55.2794 86.4668 55.9653 86.9241C56.829 87.483 58.1501 87.7879 59.9792 87.7879H63.2056C64.8314 87.7879 66.127 87.4576 67.0924 86.8225C67.9306 86.2636 68.3372 85.6031 68.3372 84.841V76.4068C68.3117 75.8733 68.0577 75.6193 67.5496 75.6193V75.6193ZM59.9538 86.0096C58.8868 86.0096 58.1246 85.9333 57.6928 85.7301C57.2609 85.5523 57.0577 85.1966 57.0577 84.6885V81.2844C57.0577 80.8779 57.2609 80.5477 57.7182 80.3698C58.1755 80.1666 58.8868 80.065 59.8775 80.065H66.2032V84.841C66.2032 85.1966 65.9491 85.5015 65.3902 85.7047C64.8314 85.9333 64.0438 86.035 62.9514 86.035H59.9538V86.0096ZM79.6927 78.2105H75.7552C74.2055 78.2105 72.9861 78.4645 72.0715 79.0234C71.1824 79.5569 70.6998 80.319 70.6998 81.2336V84.7394C70.6998 85.5523 71.0808 86.2636 71.8938 86.8987C72.2494 87.1781 72.7574 87.4068 73.418 87.5592C74.0785 87.6862 74.866 87.7878 75.8569 87.7878H77.2033C77.7367 87.7878 77.9654 87.5084 77.9654 86.9749V86.7971C77.9654 86.2636 77.7113 86.0096 77.2033 86.0096H75.6282C73.7991 86.0096 72.8845 85.349 72.8845 84.028H83.351C83.5543 84.028 83.7067 83.9518 83.8083 83.774C83.8845 83.5962 83.9607 83.4183 83.9607 83.1643V80.8525C83.9607 80.0142 83.5035 79.3283 82.6397 78.8456C81.8522 78.4137 80.8868 78.2105 79.6927 78.2105ZM72.8083 82.1989V81.0812C72.8083 80.7255 73.1131 80.4461 73.7736 80.2174C74.3072 80.0396 75.0439 79.9634 75.9838 79.9634H79.0323C79.7944 79.9634 80.4803 80.0396 81.0392 80.2682C81.5981 80.4715 81.8775 80.7001 81.8775 80.9795V82.1735L72.8083 82.1989ZM91.8614 78.2105H91.0485C89.6258 78.2105 88.5081 78.4645 87.6697 78.998C86.8568 79.5061 86.4503 80.2428 86.4249 81.1828L86.3995 86.9749C86.3995 87.5084 86.6535 87.7879 87.1616 87.7879H87.7459C88.254 87.7879 88.5081 87.5084 88.5081 86.9749V81.1828C88.5081 80.8271 88.6351 80.5477 88.9653 80.3444C89.321 80.1158 89.9815 79.9888 90.8706 79.9888H91.836C92.3695 79.9888 92.6489 79.7093 92.6489 79.1758V78.9726C92.6489 78.4645 92.3695 78.2105 91.8614 78.2105ZM120.339 78.2105H119.755C119.45 78.2105 119.222 78.3629 119.069 78.617L115.868 84.8664L112.718 79.0488C112.591 78.7948 112.439 78.6423 112.21 78.5153C111.982 78.4137 111.753 78.3375 111.524 78.3375C111.245 78.3375 111.016 78.4137 110.813 78.5407C110.584 78.6424 110.406 78.8202 110.305 79.0488L107.129 84.8664L103.928 78.617L103.624 78.3121L103.217 78.2105H102.633C102.074 78.2105 101.769 78.4137 101.769 78.8202C101.769 78.9726 101.845 79.1505 101.921 79.3537L105.732 86.9241C105.859 87.1528 106.037 87.3306 106.266 87.4576C106.52 87.5846 106.748 87.6354 107.053 87.6354C107.333 87.6354 107.587 87.5846 107.815 87.4576C108.044 87.3306 108.222 87.1782 108.323 86.9749L111.499 81.132L114.598 86.9749C114.7 87.1782 114.878 87.356 115.081 87.4576C115.309 87.5338 115.564 87.61 115.843 87.61C116.097 87.61 116.376 87.5338 116.605 87.4322C116.859 87.3052 117.037 87.1528 117.139 86.9495L121.076 79.3791C121.152 79.1759 121.203 79.0234 121.203 78.8456C121.203 78.6424 121.127 78.49 120.975 78.4137C120.797 78.2613 120.619 78.2105 120.339 78.2105ZM134.998 78.2105H134.439C133.905 78.2105 133.651 78.4645 133.651 78.998V84.9426C133.651 85.2983 133.397 85.5523 132.838 85.7301C132.305 85.9334 131.593 86.0096 130.679 86.0096H127.529C126.563 86.0096 125.827 85.908 125.319 85.7301C124.785 85.5269 124.506 85.2474 124.506 84.9172V78.998C124.506 78.4645 124.252 78.2105 123.744 78.2105H123.21C122.677 78.2105 122.422 78.4645 122.422 78.998V84.9172C122.422 85.7555 122.753 86.416 123.413 86.8987C124.252 87.483 125.623 87.7878 127.554 87.7878H130.704C132.406 87.7878 133.702 87.483 134.591 86.9241C135.404 86.416 135.785 85.7555 135.785 84.9172V78.998C135.785 78.4645 135.506 78.2105 134.998 78.2105ZM146.633 78.2105H143.178C141.501 78.2105 140.256 78.4645 139.469 78.9218C138.732 79.3537 138.376 80.0396 138.376 80.9033V86.9495C138.376 87.483 138.63 87.7624 139.139 87.7624H139.672C140.206 87.7624 140.46 87.483 140.46 86.9495V80.8779C140.46 80.5223 140.688 80.2428 141.171 80.1158C141.527 80.0142 142.212 79.9888 143.203 79.9888H146.633C147.573 79.9888 148.233 80.0142 148.614 80.1412C149.097 80.2682 149.3 80.5223 149.3 80.9033V86.9749C149.3 87.5084 149.554 87.7879 150.062 87.7879H150.647C151.18 87.7879 151.409 87.5084 151.409 86.9749V80.9033C151.409 80.0396 151.028 79.3537 150.215 78.9218C149.453 78.4137 148.259 78.2105 146.633 78.2105ZM166.753 75.6193H166.219C165.711 75.6193 165.457 75.8733 165.457 76.4068V78.2867H159.157C157.455 78.2867 156.185 78.5916 155.321 79.1504C154.559 79.6585 154.178 80.3444 154.178 81.259L154.152 85.0696C154.127 85.8572 154.483 86.4668 155.169 86.9241C156.032 87.483 157.379 87.7879 159.182 87.7879H162.409C164.035 87.7879 165.33 87.4576 166.296 86.8225C167.109 86.2636 167.54 85.6031 167.54 84.841V76.4068C167.54 75.8733 167.261 75.6193 166.753 75.6193V75.6193ZM159.157 86.0096C158.09 86.0096 157.353 85.9333 156.896 85.7301C156.49 85.5523 156.286 85.1966 156.286 84.6885V81.2844C156.286 80.8779 156.49 80.5477 156.921 80.3698C157.379 80.1666 158.09 80.065 159.081 80.065H165.406V84.841C165.406 85.1966 165.127 85.5015 164.593 85.7047C164.035 85.9333 163.222 86.035 162.155 86.035H159.157V86.0096ZM178.896 78.2105H174.958C173.409 78.2105 172.189 78.4645 171.249 79.0234C170.36 79.5569 169.878 80.319 169.878 81.2336V84.7394C169.878 85.5523 170.284 86.2636 171.072 86.8987C171.427 87.1781 171.935 87.4068 172.596 87.5592C173.256 87.6862 174.069 87.7878 175.035 87.7878H176.381C176.915 87.7878 177.143 87.5084 177.143 86.9749V86.7971C177.143 86.2636 176.889 86.0096 176.381 86.0096H174.806C172.977 86.0096 172.062 85.349 172.062 84.028H182.529C182.732 84.028 182.885 83.9518 182.961 83.774C183.062 83.5962 183.113 83.4183 183.113 83.1643V80.8525C183.113 80.0142 182.656 79.3283 181.818 78.8456C181.055 78.4137 180.09 78.2105 178.896 78.2105ZM172.037 82.1989V81.0812C172.037 80.7255 172.342 80.4461 173.002 80.2174C173.536 80.0396 174.298 79.9634 175.212 79.9634H178.286C179.049 79.9634 179.709 80.0396 180.268 80.2682C180.852 80.4715 181.106 80.7001 181.106 80.9795V82.1735L172.037 82.1989ZM191.09 78.2105H190.252C188.829 78.2105 187.711 78.4645 186.898 78.998C186.085 79.5061 185.654 80.2428 185.654 81.1828L185.628 86.9749C185.628 87.5084 185.882 87.7879 186.416 87.7879H187C187.508 87.7879 187.787 87.5084 187.787 86.9749V81.1828C187.787 80.8271 187.914 80.5477 188.219 80.3444C188.575 80.1158 189.235 79.9888 190.125 79.9888H191.09C191.624 79.9888 191.878 79.7093 191.878 79.1758V78.9726C191.852 78.4645 191.598 78.2105 191.09 78.2105Z" fill="black"/>
<path d="M95.9526 0.118255C77.2806 0.118255 62.1143 15.2591 62.1143 33.9566C62.1143 52.6541 77.2552 67.7695 95.9526 67.7695C114.65 67.7695 129.766 52.6286 129.766 33.9566C129.766 15.2845 114.625 0.118255 95.9526 0V0.118255ZM95.9526 65.3053C78.627 65.3053 64.6039 51.2822 64.6039 33.9566C64.6039 16.631 78.627 2.60786 95.9526 2.60786C113.278 2.60786 127.301 16.631 127.301 33.9566C127.301 51.2568 113.278 65.3053 95.9526 65.3053ZM95.9526 4.99585C90.1351 4.99585 84.724 6.69793 80.202 9.64481L87.8995 16.5039L95.9526 9.31456L104.006 16.5039L111.703 9.64481C107.181 6.69793 101.77 4.99585 95.9526 4.99585ZM119.502 17.1136L104.006 30.9335L95.9526 23.7187L87.8994 30.9335L72.4029 17.1136C68.9988 21.8642 67.0173 27.6818 67.0173 33.9566H124.913C124.888 27.6564 122.906 21.8388 119.502 17.1136ZM112.084 37.9705L104.031 45.1598L95.978 37.9705L87.9249 45.1598L79.8464 37.9705L71.7933 45.1852L87.9504 59.564L96.0034 52.3746L104.057 59.564L120.214 45.1852L112.084 37.9705Z" fill="#B4152B"/>
</svg>
