<svg width="168" height="44" viewBox="0 0 168 44" fill="none" xmlns="http://www.w3.org/2000/svg">
<path d="M144.601 10.0092H132.381V0.889147H167.058V10.0092H154.864V42.6282H144.601V10.0092ZM110.026 0.889147H120.289V33.5081H138.122V42.6282H110.026V0.889147ZM102.709 37.3695L102.582 37.4965C98.0857 41.612 92.6491 43.5427 85.4344 43.5427C72.7322 43.5427 64.1964 34.8291 64.1964 21.8984C64.1964 8.78984 72.5036 0 84.8755 0C96.7139 0 104.716 8.73903 104.767 21.746C104.767 23.0162 104.691 24.5658 104.564 25.5058H75.2981L75.3998 25.9885C76.6445 31.552 80.3537 34.4734 86.095 34.4734C89.8293 34.4734 93.3605 33.1524 96.3328 30.6374L96.4598 30.5358L102.709 37.3695ZM93.9956 17.8845L93.8939 17.4018C92.7253 12.0416 89.5752 9.19631 84.7993 9.19631C79.82 9.19631 76.5683 12.0416 75.3997 17.4018L75.2979 17.8845H93.9956ZM45.88 30.9169L37.6999 0.889147H26.649L18.4689 30.8661L10.6698 0.889147H0L11.7876 42.6282H24.1593L32.1109 15.6236L40.0624 42.6282H52.4343L64.2219 0.889147H53.7045L45.88 30.9169Z" fill="#0F1D46"/>
</svg>
