<svg width="64" height="64" viewBox="0 0 64 64" fill="none" xmlns="http://www.w3.org/2000/svg">
<g clip-path="url(#clip0_65_12858)">
<path d="M32 64C38.329 64 44.5159 62.1232 49.7782 58.607C55.0406 55.0908 59.1421 50.0931 61.5641 44.2459C63.9861 38.3986 64.6199 31.9645 63.3851 25.7571C62.1504 19.5497 59.1027 13.8479 54.6274 9.3726C50.1521 4.89732 44.4503 1.84961 38.2429 0.614885C32.0355 -0.619842 25.6014 0.013865 19.7541 2.43587C13.9069 4.85787 8.90918 8.95939 5.39297 14.2218C1.87677 19.4841 0 25.671 0 32C0 40.4869 3.37142 48.6263 9.37258 54.6274C15.3737 60.6286 23.5131 64 32 64ZM46.126 26.126L30.126 42.126C29.8483 42.4053 29.5181 42.627 29.1545 42.7782C28.7908 42.9295 28.4009 43.0074 28.007 43.0074C27.6131 43.0074 27.2232 42.9295 26.8595 42.7782C26.4959 42.627 26.1657 42.4053 25.888 42.126L17.888 34.126C17.588 33.8528 17.3465 33.5216 17.1781 33.1524C17.0098 32.7832 16.9181 32.3836 16.9086 31.978C16.8991 31.5723 16.972 31.1689 17.1229 30.7923C17.2738 30.4156 17.4996 30.0734 17.7865 29.7865C18.0734 29.4996 18.4156 29.2738 18.7922 29.1229C19.1689 28.9721 19.5723 28.8992 19.978 28.9086C20.3836 28.9181 20.7832 29.0098 21.1524 29.1782C21.5216 29.3465 21.8528 29.588 22.126 29.888L28 35.762L41.876 21.874C42.4463 21.3547 43.1948 21.075 43.966 21.093C44.7371 21.1111 45.4717 21.4254 46.0171 21.9709C46.5626 22.5163 46.8769 23.2509 46.895 24.022C46.913 24.7932 46.6333 25.5417 46.114 26.112L46.126 26.126Z" fill="#489CF0"/>
</g>
<defs>
<clipPath id="clip0_65_12858">
<rect width="64" height="64" fill="white"/>
</clipPath>
</defs>
</svg>
