<svg width="168" height="48" viewBox="0 0 168 48" fill="none" xmlns="http://www.w3.org/2000/svg">
<path d="M151.536 0C160.453 0 167.668 7.21484 167.668 16.1316C167.668 25.0487 160.453 32.2632 151.536 32.2632C142.619 32.2632 135.404 25.0487 135.404 16.1316C135.404 7.21484 142.645 0 151.536 0V0ZM158.04 22.6606V6.5036L141.781 12.3465V16.3603L147.166 14.4043V26.5474L158.04 22.6606ZM151.536 2.36251C143.94 2.36251 137.767 8.53583 137.767 16.1318C137.767 23.7276 143.94 29.9009 151.536 29.9009C159.132 29.9009 165.305 23.7276 165.305 16.1318C165.33 8.53583 159.157 2.36251 151.536 2.36251ZM23.0671 31.552H14.2012L18.4437 16.9953L23.0671 31.552ZM81.8778 46.7691L81.395 42.2725C75.8315 43.365 77.5081 28.5545 71.0301 27.792C75.7808 26.5982 79.1086 22.2794 79.0578 17.3764C79.0578 9.9583 73.4941 6.52887 64.1455 6.52887C58.4041 6.52887 50.9608 6.83374 49.4618 6.83374H44.9145V10.5936C46.4641 11.6605 48.1411 12.5243 49.8938 13.1594V40.8753C48.1155 41.4342 46.4389 42.298 44.9145 43.3904V47.2265H63.4089V43.3904C62.3674 42.3994 61.1987 41.5359 59.9285 40.8753V30.8662H61.7322C67.9562 30.8662 65.7968 47.8869 74.9678 47.8869C77.305 47.9631 79.6677 47.5819 81.8778 46.7691ZM68.6423 18.7483C69.0995 21.8221 66.9656 24.6676 63.8918 25.0992C63.4853 25.15 63.0535 25.1754 62.6468 25.15H59.9541V12.575C60.7415 12.4226 61.5545 12.3464 62.3423 12.3209C65.543 12.0416 68.3628 14.404 68.6423 17.605C68.6931 17.9863 68.6931 18.3672 68.6423 18.7483ZM128.571 26.1663C128.571 12.0416 121.381 6.57968 108.374 6.57968C102.912 6.57968 96.1549 6.83374 92.9284 6.83374H88.0763V10.6189C89.626 11.6605 91.3027 12.5498 93.0557 13.261V40.8753C91.2774 41.4598 89.6006 42.3233 88.0763 43.4412V47.2773H93.1064C94.9102 47.2773 101.261 47.5313 105.63 47.5313C118.688 47.4804 128.571 39.9862 128.571 26.1663ZM117.952 27.0555C117.952 36.8107 113.709 41.1295 108.247 41.1295C106.52 41.2057 104.767 41.0025 103.09 40.5197V12.4989C104.284 12.3719 105.478 12.3211 106.672 12.3211C115.691 12.3211 117.952 19.1548 117.952 27.0555ZM39.8338 47.2517V43.4158C39.0209 42.4503 38.0556 41.6119 36.9633 40.9516L25.1503 6.70657H15.2681L3.48039 40.9768C2.18466 41.5865 1.01626 42.4249 0 43.4409V47.2771H14.9123V43.4409C13.8707 42.4503 12.702 41.6373 11.4319 40.9768L12.575 37.2169H24.7438L26.0138 40.9768C24.6927 41.6119 23.4481 42.4503 22.3558 43.4409V47.2771L39.8338 47.2517Z" fill="#0F1D46"/>
</svg>
