<svg width="88" height="88" viewBox="0 0 88 88" fill="none" xmlns="http://www.w3.org/2000/svg">
<path d="M88.0001 44C88.0001 68.3118 68.2864 88 44.0001 88C19.6882 88 0 68.2864 0 44C0 19.6882 19.7136 0 44.0001 0C68.2864 -2.25554e-06 88.0001 19.6882 88.0001 44Z" fill="url(#paint0_linear_64_10195)"/>
<path d="M87.138 36.2262C88.8909 45.9306 70.9811 57.2863 47.152 61.5796C23.3228 65.8729 2.56763 61.478 0.814736 51.7736C-0.938161 42.0692 16.9718 30.7135 40.8009 26.4202C64.6554 22.1269 85.3852 26.5219 87.138 36.2262Z" fill="url(#paint1_linear_64_10195)"/>
<path d="M32.3408 38.4873C33.3824 39.5288 33.9158 40.8245 33.9158 42.2979V51.1131H31.1722V42.2725C31.1722 41.5358 30.9181 40.9515 30.4102 40.418C29.8767 39.9099 29.2923 39.6559 28.5557 39.6559H25.1515C24.4148 39.6559 23.8305 39.9099 23.2969 40.418C22.7889 40.9515 22.5349 41.5358 22.5349 42.2725V45.7021C22.5349 46.4388 22.7889 47.0485 23.3224 47.582C23.8558 48.1154 24.4402 48.3695 25.1769 48.3695H29.3685V51.1131H25.1769H25.1515C23.678 51.1131 22.3824 50.5797 21.3662 49.5381C20.3247 48.4965 19.7912 47.2009 19.7912 45.7275V42.2979C19.7912 40.8245 20.3247 39.5288 21.3662 38.4873C22.4078 37.4457 23.7035 36.9122 25.1769 36.9122H28.5557C30.0036 36.8868 31.2991 37.4457 32.3408 38.4873ZM42.9089 39.6813H45.6525V36.9376H42.9089V39.6813ZM42.9089 51.1131H45.6525V41.1547H42.9089V51.1131ZM37.0405 51.1131H39.7842V36.963H37.0405V51.1131ZM48.7518 51.1131H51.4955V36.963H48.7518V51.1131ZM58.8881 45.3718H68.44C68.44 45.3718 68.44 42.1963 68.44 41.1293C68.44 39.9861 68.0081 38.9699 67.1953 38.157C66.3824 37.3441 65.3662 36.9122 64.2229 36.9122C64.2229 36.9122 64.2229 36.9122 64.1975 36.9122H59.6756C58.2022 36.9122 56.9066 37.4457 55.865 38.4873C54.8234 39.5288 54.29 40.8245 54.29 42.2979V45.7275C54.29 47.2009 54.8234 48.4965 55.865 49.5381C56.9066 50.5797 58.2022 51.1131 59.6756 51.1131H67.2969V48.3695H59.6756C58.9388 48.3695 58.3546 48.1154 57.7957 47.582C57.2623 47.0485 57.0336 46.4388 57.0082 45.7021V42.2725C57.0082 41.5358 57.2623 40.9515 57.7703 40.418C58.3038 39.8845 58.8881 39.6559 59.6248 39.6559H64.1723C64.5786 39.6559 64.909 39.7829 65.2138 40.0877C65.5186 40.3926 65.6457 40.6974 65.6457 41.1293C65.6457 41.485 65.6457 42.1709 65.6457 42.6282H58.8374L58.8881 45.3718ZM84.8004 42.2979V45.7275C84.8004 47.2009 84.2669 48.4965 83.2254 49.5381C82.1837 50.5797 80.8881 51.1131 79.4401 51.1131H79.4147H76.036C74.5626 51.1131 73.2669 50.5797 72.2254 49.5381C71.1838 48.4965 70.6503 47.2009 70.6503 45.7275V42.2979C70.6503 40.8245 71.1838 39.5288 72.2254 38.4873C73.2669 37.4457 74.5626 36.9122 76.036 36.9122H79.4147C80.8881 36.9122 82.1837 37.4457 83.2254 38.4873C84.2669 39.5034 84.8004 40.8245 84.8004 42.2979ZM82.0567 42.2725C82.0567 41.5358 81.8026 40.9515 81.2946 40.418C80.7611 39.8845 80.1769 39.6559 79.4401 39.6559H76.0359C75.2992 39.6559 74.6895 39.9099 74.1814 40.418C73.6479 40.9515 73.4193 41.5358 73.4193 42.2725V45.7021C73.4193 46.4388 73.6733 47.0485 74.2069 47.582C74.7402 48.1154 75.3246 48.3695 76.0866 48.3695H79.4908C80.2275 48.3695 80.8119 48.1154 81.3453 47.582C81.8788 47.0485 82.1075 46.4388 82.1075 45.7021L82.0567 42.2725ZM11.7379 42.6536H17.3015C17.3015 42.6536 17.3015 45.8291 17.3015 46.8961C17.3015 48.0392 16.8696 49.0554 16.0567 49.8683C15.2437 50.6813 14.2277 51.1131 13.0843 51.1131C13.0843 51.1131 13.0843 51.1131 13.059 51.1131H8.53702C7.06366 51.1131 5.76801 50.5797 4.72649 49.5381C3.68483 48.4965 3.15137 47.2009 3.15137 45.7275V42.2979C3.15137 40.8245 3.68483 39.5288 4.72649 38.4873C5.76801 37.4457 7.06366 36.9122 8.53702 36.9122H16.1583V39.6559H8.53702C7.80031 39.6559 7.2161 39.9099 6.65716 40.4434C6.1237 40.9769 5.86956 41.5866 5.86956 42.3233V45.7529C5.86956 46.4896 6.1237 47.0739 6.63168 47.6074C7.16515 48.1408 7.74949 48.3695 8.48621 48.3695H13.0336C13.4401 48.3695 13.7704 48.2425 14.0752 47.9376C14.3801 47.6328 14.5071 47.3279 14.5071 46.896C14.5071 46.5404 14.5071 45.8545 14.5071 45.3972H11.6873L11.7379 42.6536Z" fill="white"/>
<defs>
<linearGradient id="paint0_linear_64_10195" x1="-1240.05" y1="338.505" x2="-1328.22" y2="338.782" gradientUnits="userSpaceOnUse">
<stop stop-color="#2C3566"/>
<stop offset="0.1372" stop-color="#2B396A"/>
<stop offset="0.2831" stop-color="#264577"/>
<stop offset="0.4329" stop-color="#1F588C"/>
<stop offset="0.5855" stop-color="#1574AA"/>
<stop offset="0.7386" stop-color="#0897D0"/>
<stop offset="0.8259" stop-color="#00AEE9"/>
</linearGradient>
<linearGradient id="paint1_linear_64_10195" x1="-1652.28" y1="685.939" x2="-1565.99" y2="672.721" gradientUnits="userSpaceOnUse">
<stop offset="0.0095" stop-color="#214879"/>
<stop offset="0.2001" stop-color="#17669B"/>
<stop offset="0.4216" stop-color="#0D83BC"/>
<stop offset="0.6342" stop-color="#0698D4"/>
<stop offset="0.8319" stop-color="#01A5E2"/>
<stop offset="1" stop-color="#00A9E7"/>
</linearGradient>
</defs>
</svg>
