<svg width="571" height="43" viewBox="0 0 571 43" fill="none" xmlns="http://www.w3.org/2000/svg">
<path d="M8.44141 30.6946C17.1033 28.2634 35.9173 18.1234 38.7638 13.0411C38.8739 12.8456 38.9105 12.6257 38.886 12.4058C38.8616 11.5017 35.5874 5.97968 31.055 3.463C30.8717 3.40191 30.6763 3.40191 30.4931 3.45075C28.5748 3.85388 25.1174 6.56611 21.1592 11.2085C16.0281 17.0726 11.7399 23.6332 8.44141 30.6946Z" stroke="black" stroke-width="0.113739"/>
<path d="M39.3991 15.46C39.9977 15.7409 40.181 16.7427 40.181 16.987C40.0833 22.6191 20.1819 31.0488 8.44141 31.4886C16.3579 36.1921 31.006 38.0857 37.2734 32.2582C39.0326 30.6211 41.8792 24.8792 40.1566 16.8893" stroke="black" stroke-width="0.113739"/>
<path d="M37.6521 31.8672C36.5404 35.0924 33.2907 37.9757 26.8524 38.0001C20.1452 38.0001 13.6581 35.7033 8.44141 31.4885C10.9826 35.4101 15.0141 41.2743 21.9289 41.8118C24.3479 41.9951 28.9048 40.2847 30.9206 39.002C34.3536 36.8273 37.2124 33.8952 37.6521 31.8672Z" stroke="black" stroke-width="0.113739"/>
<path d="M21.1098 41.7264C20.1447 41.9585 19.1428 41.9829 18.1777 41.7997C16.9927 41.592 15.8809 41.0911 14.9281 40.3703C10.9086 37.6581 9.10051 32.979 8.44081 31.5007C7.93994 34.9948 8.17208 38.0979 9.91912 39.0997C11.886 40.2725 14.0485 41.1155 16.2963 41.5797C17.066 41.7508 17.8479 41.8607 18.6297 41.9096C18.8863 41.934 19.155 41.934 19.4116 41.9218" stroke="black" stroke-width="0.113739"/>
<path d="M8.53806 37.6581C8.12265 37.7192 7.7073 37.5604 7.42629 37.2427C7.20643 36.8396 7.12084 36.3631 7.18193 35.911C7.37735 34.3839 7.80498 32.8934 8.44031 31.5007C7.10869 31.9406 3.59017 32.9057 2.78385 31.9039C2.79621 31.9283 2.69833 31.7817 2.77164 31.9039C3.63912 33.3211 4.65307 34.6405 5.8015 35.8255C6.21684 36.2776 6.65662 36.6929 7.13319 37.0839C7.48745 37.4747 8.00047 37.6825 8.53806 37.6581Z" stroke="black" stroke-width="0.113739"/>
<path d="M0.426956 18.0254C-1.43005 23.9383 4.07987 28.7275 8.44129 31.1952C7.59824 31.1586 2.85813 31.3174 1.80752 29.5582C-0.245036 25.2334 -0.171797 19.1371 0.426956 18.0254Z" stroke="black" stroke-width="0.113739"/>
<path d="M12.0084 2.52222C4.12849 4.06155 1.39187 17.9155 8.45333 30.7067C3.60326 26.834 0.549029 22.2892 0.402344 17.5369C1.06205 9.73023 8.83195 2.72992 12.0084 2.52222Z" stroke="black" stroke-width="0.113739"/>
<path d="M2.74803 31.6474C2.63793 31.403 2.6625 31.1221 2.79676 30.8899" stroke="black" stroke-width="0.113739"/>
<path d="M29.0025 2.742C26.8278 -0.226705 22.1855 3.15738 17.4941 9.65681C13.5847 15.0689 9.57757 23.4131 8.44137 30.6944C5.65594 23.8529 4.04336 8.93602 11.9965 2.52207C17.4697 -1.27739 27.4753 0.823942 28.7581 2.47324C28.8315 2.54651 28.7215 2.41215 29.0025 2.742Z" stroke="black" stroke-width="0.113739"/>
<path d="M28.5986 2.57104C29.2095 2.82762 29.8204 3.19413 30.3823 3.4874" stroke="black" stroke-width="0.113739"/>
<path d="M38.7881 13.2729C39.069 13.9083 39.289 14.5557 39.4723 15.2277" stroke="black" stroke-width="0.113739"/>
<path d="M8.80768 37.8041C8.63686 37.7187 8.4661 37.609 8.30762 37.4993" stroke="black" stroke-width="0.113739"/>
<path d="M2.61328 30.3767C2.67433 30.5475 2.73518 30.7182 2.7963 30.8889" stroke="black" stroke-width="0.113739"/>
<path d="M7.24268 30.1788C3.13777 27.4422 -0.588453 23.5205 0.437792 18.6826" stroke="#0000FF" stroke-width="0.113739"/>
<path d="M7.91426 29.2259C2.01337 17.2777 4.46898 4.87755 11.787 2.70288" stroke="#0000FF" stroke-width="0.113739"/>
<path d="M2.82055 30.9485C2.73503 31.3639 3.00389 31.7792 3.4191 31.877C5.0441 32.0236 6.68103 31.816 8.23265 31.2906" stroke="#0000FF" stroke-width="0.113739"/>
<path d="M8.70801 30.1057C11.0414 17.1679 23.8815 -1.71946 28.5851 2.56865" stroke="#0000FF" stroke-width="0.113739"/>
<path d="M39.471 15.4087C41.3645 17.4367 37.9193 20.7964 32.3239 23.814C25.6535 27.4057 15.9777 30.5333 9.17285 30.9242" stroke="#0000FF" stroke-width="0.113739"/>
<path d="M9.28223 31.9626C15.7084 36.2508 22.0123 38.01 27.2412 37.8023C34.8767 37.4846 36.7949 33.2454 37.3445 32.207" stroke="#0000FF" stroke-width="0.113739"/>
<path d="M9.07422 32.4636C10.418 35.8722 12.8249 38.7675 15.9279 40.71C17.0152 41.3575 18.2491 41.7118 19.5074 41.7241C19.8862 41.7485 20.2772 41.7241 20.6436 41.6507" stroke="#0000FF" stroke-width="0.113739"/>
<path d="M8.34204 32.2681C7.7923 33.4531 7.46241 34.7359 7.34023 36.0432C7.32794 36.9717 7.60902 37.4114 8.35426 37.5458" stroke="#0000FF" stroke-width="0.113739"/>
<path d="M6.31056 29.3028C3.36636 26.9571 -0.0177547 23.6341 0.495333 19.1628" stroke="#FF0000" stroke-width="0.113739"/>
<path d="M7.40934 27.5559C5.91895 23.9642 5.10034 20.1403 4.99052 16.2553C4.91714 10.7332 6.63967 5.26001 11.612 2.85327" stroke="#FF0000" stroke-width="0.113739"/>
<path d="M9.25488 28.973C11.3072 21.985 14.4105 15.3512 18.442 9.27936C22.3758 3.79392 26.4441 1.27728 28.5944 2.54775" stroke="#FF0000" stroke-width="0.113739"/>
<path d="M39.4791 15.3999C41.3361 18.8938 34.2013 23.3897 25.3562 26.896C20.384 28.7529 15.204 30.0235 9.93848 30.671" stroke="#FF0000" stroke-width="0.113739"/>
<path d="M11.6006 33.0781C21.2642 38.5391 32.4794 39.7241 37.2684 32.2717" stroke="#FF0000" stroke-width="0.113739"/>
<path d="M10.3789 34.324C13.9952 40.2614 16.8905 41.3609 20.0793 41.5319" stroke="#FF0000" stroke-width="0.113739"/>
<path d="M8.32583 37.5127C7.89834 37.2683 7.60504 36.8407 7.54395 36.3642C7.59282 35.106 7.84933 33.872 8.30139 32.6992" stroke="#FF0000" stroke-width="0.113739"/>
<path d="M2.79199 30.8911C3.04864 31.2575 3.14631 31.5264 3.45177 31.6486C4.55132 31.9295 5.71175 31.7829 6.72585 31.2575" stroke="#FF0000" stroke-width="0.113739"/>
<path opacity="0.75" d="M2.79481 30.9192C2.74608 30.9803 2.72164 31.0414 2.69714 31.1147C2.66042 31.2734 2.67263 31.4445 2.72164 31.6033C2.84369 31.811 3.03931 31.9577 3.27139 32.0187C3.58906 32.1164 3.90665 32.1531 4.23654 32.1409C4.56636 32.1409 4.88403 32.1164 5.21384 32.0798C6.24016 31.9332 7.25405 31.6889 8.25579 31.3712C8.28029 31.3468 8.34138 31.359 8.3536 31.3224C8.32923 31.2857 8.25579 31.3101 8.2192 31.2979C7.7184 31.2857 7.21732 31.2857 6.71666 31.2613C6.13013 31.5423 5.50715 31.7133 4.85966 31.7866C4.37087 31.8599 3.87007 31.7989 3.40572 31.6278C3.28367 31.5789 3.18586 31.4934 3.11262 31.3835C3.02703 31.1513 2.91713 30.9313 2.79481 30.9313V30.9192Z" fill="black"/>
<path opacity="0.75" d="M8.41432 31.5789C8.26777 31.8965 8.14552 32.2264 8.02334 32.5562C7.65694 33.4847 7.38807 34.4498 7.21709 35.4394C7.14378 35.8792 7.14378 36.3313 7.21709 36.771C7.25381 37.0765 7.43695 37.333 7.70581 37.4918C7.95024 37.6384 8.23119 37.6995 8.49991 37.6751C8.52442 37.6384 8.41446 37.614 8.38995 37.5774L8.37773 37.5652C8.4021 37.5652 8.46319 37.5652 8.45104 37.5529C8.27992 37.443 8.12116 37.3085 7.96225 37.1742C7.92567 37.1498 7.85229 37.0887 7.77898 37.0276L7.74233 36.9787C7.58356 36.7344 7.51025 36.4534 7.5224 36.1602C7.53476 35.7081 7.59571 35.2561 7.70581 34.8163C7.87679 34.0955 8.08443 33.3991 8.29214 32.6905C8.32886 32.3241 8.37773 31.9576 8.41432 31.5789C8.42661 31.5911 8.42661 31.5789 8.41432 31.5789Z" fill="black"/>
<path opacity="0.75" d="M8.52344 31.6399C8.62118 31.9209 8.74336 32.1897 8.86554 32.4585C9.7451 34.5354 10.9302 36.4533 12.4084 38.1515C13.0926 38.9212 13.8745 39.6176 14.7175 40.2162C15.1573 40.5339 15.6093 40.8271 16.0736 41.0836C16.4277 41.2669 16.7943 41.4134 17.1731 41.5113H17.2587C17.2219 41.5601 17.3442 41.5478 17.3807 41.5723C17.7472 41.67 18.1016 41.78 18.4681 41.8533C18.9934 41.9266 19.5309 41.9388 20.0563 41.8899C20.3984 41.8655 20.7283 41.8166 21.0581 41.7434C21.0704 41.6945 20.9603 41.7189 20.9237 41.6945C20.6306 41.6578 20.3497 41.5723 20.0808 41.4379C19.8486 41.4379 19.592 41.4257 19.3355 41.4134C18.3948 41.4257 17.4663 41.2058 16.6356 40.766C15.3772 40.1673 14.2533 39.3366 13.3126 38.2982C12.2375 37.1009 11.2724 35.8059 10.4417 34.4254C10.234 34.1077 9.9896 33.8023 9.78189 33.4847C9.3544 32.8861 8.95121 32.263 8.54801 31.6522C8.56009 31.6399 8.5478 31.6399 8.52344 31.6399Z" fill="black"/>
<path opacity="0.75" d="M8.60944 31.6033C8.585 31.64 8.65838 31.6522 8.67053 31.6766C11.3949 33.8146 14.4859 35.476 17.7722 36.5757C20.1911 37.3697 22.6956 37.8462 25.2367 37.9806C26.0552 38.0295 26.8616 38.0172 27.6802 37.9928C28.4009 37.9561 29.1217 37.8829 29.8303 37.7729C29.8303 37.7607 29.8426 37.7485 29.8426 37.7363V37.7607C29.8792 37.785 29.9403 37.7485 29.9892 37.7485C31.5895 37.4797 33.1167 36.8932 34.4728 35.9892C35.6577 35.1951 36.6107 34.0956 37.2459 32.825C37.3803 32.544 37.5025 32.2508 37.6125 31.9454C37.637 31.8843 37.637 31.8843 37.6003 31.9331C37.4048 32.1409 37.1971 32.3485 36.9771 32.5318C36.855 32.715 36.7205 32.9105 36.5862 33.106C36.3542 33.4236 36.1098 33.7413 35.951 33.949C35.4256 34.4865 34.8514 34.963 34.2406 35.3905C32.9211 36.2579 31.4429 36.8688 29.9035 37.1742C29.8912 37.1742 29.8668 37.1864 29.8546 37.1987C29.8059 37.1864 29.7447 37.223 29.6959 37.223C28.6453 37.4185 27.5702 37.5163 26.5073 37.5163C24.1983 37.4918 21.9015 37.1497 19.6779 36.49C16.9046 35.6837 14.2414 34.5598 11.7247 33.1304C11.5171 33.0082 11.2849 32.9227 11.0651 32.8249C10.2464 32.4585 9.4402 32.0553 8.65838 31.6032C8.63388 31.6033 8.62173 31.5911 8.60944 31.6033Z" fill="black"/>
<path opacity="0.75" d="M39.4084 15.1106C39.384 15.1473 39.4206 15.1961 39.4328 15.245C39.5184 15.5137 39.6772 16.149 39.7506 16.4423C39.775 16.9309 39.6772 17.4074 39.4696 17.8472C39.0542 18.6658 38.4801 19.3987 37.7837 20.0096C36.6964 20.9869 35.4991 21.8666 34.2407 22.6118C32.4082 23.7113 30.5024 24.6887 28.5476 25.5561C28.511 25.5805 28.4621 25.5805 28.4376 25.6172C28.2422 25.6783 28.0713 25.776 27.8757 25.8493C26.2997 26.5334 24.7114 27.181 23.0866 27.7307C20.3988 28.6226 17.6502 29.3311 14.8647 29.8687C13.2276 30.1864 11.5782 30.4551 9.92901 30.675C9.4648 30.8338 8.98836 30.9682 8.52401 31.1148C8.49964 31.1637 8.60954 31.127 8.63404 31.127C11.0408 30.9926 13.4353 30.6505 15.781 30.1008C18.9208 29.3922 21.9994 28.4637 25.0046 27.3275C26.373 26.8144 27.7292 26.2525 29.073 25.6416C29.073 25.6294 29.073 25.6172 29.0608 25.6172H29.1341C31.3209 24.6399 33.4223 23.5037 35.4257 22.2087C36.562 21.4756 37.6126 20.6327 38.5656 19.6676C39.1642 19.0811 39.6408 18.3726 39.9828 17.6029C40.1416 17.2242 40.2026 16.8088 40.1661 16.4056C40.1171 15.978 39.9217 15.5748 39.6408 15.2572C39.5673 15.2083 39.4939 15.1594 39.4084 15.1106Z" fill="black"/>
<path opacity="0.75" d="M0.387874 18.1648C0.35122 18.2503 0.326923 18.3359 0.314566 18.4213C0.155801 19.0444 0.0702749 19.6797 0.0825623 20.315C0.0702749 20.657 0.0825623 21.0113 0.131296 21.3534C0.119078 21.4023 0.143652 21.4267 0.168019 21.4389C0.155801 21.4389 0.143652 21.4633 0.155801 21.4756C0.375656 22.8317 0.901031 24.1267 1.68292 25.2628C2.64807 26.6556 3.82086 27.9017 5.16471 28.9523C6.1543 29.7342 7.20491 30.455 8.29231 31.0781C8.32897 31.0903 8.32897 31.0536 8.30453 31.0415C7.65698 30.5161 7.02171 29.9542 6.41081 29.3921C5.99553 29.0256 5.5679 28.6957 5.15249 28.3293C3.8941 27.2664 2.7824 26.0325 1.87833 24.6519C1.31631 23.7845 0.91318 22.8194 0.668958 21.8176C0.632165 21.6955 0.620086 21.5855 0.583432 21.4633C0.571075 21.4633 0.558927 21.4511 0.546639 21.4511H0.583432C0.583432 21.3534 0.546639 21.2556 0.546639 21.1579C0.461113 20.5226 0.448895 19.8873 0.509985 19.2521C0.509985 19.0688 0.473262 18.8855 0.461113 18.7022C0.448895 18.519 0.436746 18.3602 0.424459 18.1892C0.41238 18.177 0.400162 18.1648 0.387874 18.1648Z" fill="black"/>
<path opacity="0.75" d="M11.9564 2.52686C11.2113 2.67337 10.5027 2.94216 9.84293 3.30867C9.84293 3.32085 9.85515 3.33311 9.86737 3.33311H9.80635C8.60912 4.0295 7.60738 5.0068 6.84986 6.16745C6.01918 7.45023 5.40827 8.86739 5.02959 10.3579C4.73635 11.4818 4.54079 12.6424 4.44319 13.803C4.44319 13.8275 4.44319 13.8275 4.45541 13.8397H4.44319C4.40647 14.2062 4.39432 14.5605 4.3821 14.9271C4.36981 15.5868 4.36981 16.2465 4.39432 16.9062C4.45541 18.2622 4.62646 19.6183 4.88304 20.9622H4.90747H4.88304C4.91969 21.2187 4.993 21.4753 5.04187 21.7441C5.65264 24.5173 6.63008 27.2051 7.92498 29.734C8.05945 29.9905 8.18163 30.2472 8.32824 30.4915C8.37705 30.4915 8.32824 30.4304 8.32824 30.4059C7.98614 29.5019 7.68062 28.5733 7.43647 27.6327C7.28985 27.2173 7.10658 26.8141 6.9599 26.3987C6.31241 24.6395 5.81147 22.8192 5.48172 20.9744H5.45722H5.46937C5.39613 20.5224 5.32282 20.0704 5.26173 19.6184C5.07846 18.3722 4.993 17.1139 5.00515 15.8556C5.00515 15.1959 5.02959 14.524 5.09068 13.8642C5.09068 13.8397 5.06624 13.8397 5.05402 13.8397H5.09068C5.12733 13.7788 5.10289 13.7054 5.11518 13.6443C5.28616 11.5796 5.84819 9.56385 6.75226 7.70688C7.49742 6.21639 8.57254 4.92138 9.89194 3.91957C10.1607 3.71187 10.4418 3.54092 10.7106 3.35761H10.7228C10.9304 3.25997 11.1137 3.12557 11.3214 3.02779C11.4924 2.95449 11.639 2.85674 11.7857 2.74678C11.859 2.68572 11.9322 2.62463 11.9933 2.56354C11.9808 2.53904 11.9686 2.52686 11.9564 2.52686ZM9.9774 3.33311H9.98955H9.91624C9.94061 3.33311 9.96504 3.33311 9.9774 3.33311Z" fill="black"/>
<path opacity="0.75" d="M26.8739 1.65975C26.4584 1.67194 26.0553 1.75743 25.6643 1.90404C24.7237 2.2828 23.8563 2.80811 23.0743 3.45563C22.6346 3.80992 22.2191 4.18861 21.8039 4.57962C21.8039 4.5918 21.8039 4.5918 21.8161 4.5918H21.7794C21.083 5.27601 20.4233 5.98462 19.788 6.71753C18.6763 8.02479 17.65 9.38082 16.6971 10.798C16.0374 11.7754 15.4144 12.7894 14.8157 13.8034C14.8157 13.8156 14.8279 13.8278 14.8279 13.8278H14.7913C13.4718 16.1246 12.299 18.5069 11.285 20.9503L11.2972 20.9625H11.285C10.4419 22.9905 9.74571 25.0673 9.18375 27.1809C8.89052 28.3049 8.63394 29.4532 8.46289 30.6017C8.49954 30.6383 8.51176 30.5406 8.52398 30.5283C8.75598 30.0396 8.9882 29.551 9.22034 29.0501C9.34245 28.7324 9.42798 28.4148 9.53794 28.0972C10.2221 25.947 11.004 23.8212 11.8592 21.7199C11.957 21.4756 12.0669 21.219 12.1647 20.9747L12.1524 20.9625H12.1647C12.2135 20.8648 12.2624 20.7548 12.3113 20.6448C13.2886 18.3358 14.3759 16.0757 15.5854 13.8766C15.5977 13.8644 15.5977 13.8522 15.5977 13.84C15.6832 13.7301 15.732 13.5956 15.8052 13.4735C17.137 11.0545 18.7129 8.7822 20.5088 6.69313C21.1562 5.96008 21.8526 5.26369 22.5735 4.6162C22.5735 4.60398 22.5612 4.60398 22.5612 4.5918H22.61C23.3798 3.90766 24.2349 3.30898 25.1513 2.83258C25.8353 2.466 26.5928 2.25837 27.3625 2.2339C27.7901 2.2339 28.2176 2.34382 28.5964 2.55156C28.7186 2.61265 28.8285 2.66156 28.9506 2.7104C28.9874 2.686 28.9261 2.66156 28.9139 2.63709C28.7552 2.41717 28.5597 2.23397 28.3276 2.08735C28.1077 1.92851 27.8633 1.80633 27.5946 1.74524C27.3626 1.67194 27.1182 1.6475 26.8739 1.65975Z" fill="black"/>
<path d="M20.3465 0.748291C9.21698 0.846035 0.274143 9.95992 0.371887 21.0895V21.1018C0.371887 24.2904 1.10476 27.4301 2.52205 30.2889C2.52205 30.3011 2.52205 30.3133 2.52205 30.3133L2.6198 30.3744C2.74198 30.7287 2.88852 31.0829 3.05958 31.4129C3.56051 32.3657 4.17135 33.2698 4.85542 34.1006C6.00384 35.4933 7.34776 36.7272 8.83808 37.7534C8.81371 37.7534 9.6201 38.2787 9.92555 38.462C13.0531 40.4167 16.6693 41.4552 20.3466 41.4552C31.4762 41.3574 40.419 32.2558 40.3336 21.1262C40.3336 21.1262 40.3336 21.1262 40.3336 21.114C40.4189 9.9721 31.4884 0.858219 20.3465 0.748291Z" fill="#FF2A7F"/>
<path opacity="0.35" d="M20.3465 0.748291C9.21698 0.846035 0.274143 9.95992 0.371887 21.0895V21.1018C0.371887 24.2904 1.10476 27.4301 2.52205 30.2889C2.52205 30.3011 2.52205 30.3133 2.52205 30.3133L2.6198 30.3744C2.74198 30.7287 2.88852 31.0829 3.05958 31.4129C3.56051 32.3657 4.17135 33.2698 4.85542 34.1006C6.00384 35.4933 7.34776 36.7272 8.83808 37.7534C8.81371 37.7534 9.6201 38.2787 9.92555 38.462C13.0531 40.4167 16.6693 41.4552 20.3466 41.4552C31.4762 41.3574 40.419 32.2558 40.3336 21.1262C40.3336 21.1262 40.3336 21.1262 40.3336 21.114C40.4189 9.9721 31.4884 0.858219 20.3465 0.748291Z" fill="url(#paint0_radial_59_1924)"/>
<path opacity="0.35" d="M20.3465 0.748291C9.21698 0.846035 0.274143 9.95992 0.371887 21.0895V21.1018C0.371887 24.2904 1.10476 27.4301 2.52205 30.2889C2.52205 30.3011 2.52205 30.3133 2.52205 30.3133L2.6198 30.3744C2.74198 30.7287 2.88852 31.0829 3.05958 31.4129C3.56051 32.3657 4.17135 33.2698 4.85542 34.1006C6.00384 35.4933 7.34776 36.7272 8.83808 37.7534C8.81371 37.7534 9.6201 38.2787 9.92555 38.462C13.0531 40.4167 16.6693 41.4552 20.3466 41.4552C31.4762 41.3574 40.419 32.2558 40.3336 21.1262C40.3336 21.1262 40.3336 21.1262 40.3336 21.114C40.4189 9.9721 31.4762 0.858219 20.3465 0.748291Z" fill="url(#paint1_radial_59_1924)"/>
<path opacity="0.75" d="M20.3465 0.748291C9.21698 0.846035 0.274143 9.95992 0.371887 21.0895V21.1018C0.371887 24.2904 1.10476 27.4301 2.52205 30.2889C2.52205 30.3011 2.52205 30.3133 2.52205 30.3133L2.6198 30.3744C2.74198 30.7287 2.88852 31.0829 3.05958 31.4129C3.56051 32.3657 4.17135 33.2698 4.85542 34.1006C6.00384 35.4933 7.34776 36.7272 8.83808 37.7534C8.81371 37.7534 9.6201 38.2787 9.92555 38.462C13.0531 40.4167 16.6693 41.4552 20.3466 41.4552C31.4762 41.3574 40.419 32.2558 40.3336 21.1262C40.3336 21.1262 40.3336 21.1262 40.3336 21.114C40.4189 9.9721 31.4762 0.858219 20.3465 0.748291Z" fill="url(#paint2_radial_59_1924)"/>
<path opacity="0.5" d="M8.41375 31.5804C8.26727 31.898 8.15724 32.2279 8.03506 32.5455C7.66859 33.474 7.39979 34.4391 7.22881 35.4287C7.1555 35.8685 7.1555 36.3206 7.22881 36.7603C7.27768 37.0657 7.44873 37.3223 7.71753 37.4689C7.96189 37.6155 8.23055 37.6766 8.51163 37.6522C8.536 37.6155 8.42611 37.5911 8.40167 37.5544C8.15724 37.3957 7.9496 37.2001 7.76633 36.968C7.6075 36.7237 7.53419 36.4427 7.54648 36.1495C7.55877 35.6975 7.61972 35.2454 7.72975 34.8056C7.88851 34.0848 8.10837 33.3884 8.31607 32.6798C8.35273 32.3134 8.40167 31.9469 8.43826 31.5803C8.42611 31.5804 8.42611 31.5804 8.41375 31.5804Z" fill="black"/>
<path opacity="0.5" d="M2.79481 30.9204C2.74608 30.9815 2.72164 31.0426 2.69714 31.1159C2.66042 31.2747 2.67263 31.4457 2.72164 31.6046C2.84369 31.8123 3.03931 31.9589 3.27139 32.02C3.58906 32.1176 3.90665 32.1543 4.23654 32.1421C4.56636 32.1421 4.88403 32.1176 5.21384 32.0811C6.24016 31.9344 7.25405 31.6901 8.25579 31.3724C8.28029 31.348 8.34138 31.3603 8.3536 31.3236C8.32923 31.2869 8.25579 31.3113 8.2192 31.2992C7.7184 31.2869 7.21732 31.2869 6.71666 31.2625C6.13013 31.5435 5.50715 31.7145 4.85966 31.7878C4.37087 31.8611 3.87007 31.8001 3.40572 31.629C3.23466 31.5435 3.08812 31.3969 3.00259 31.2259C2.95372 31.128 2.89263 31.0181 2.79481 30.9204Z" fill="black"/>
<path opacity="0.5" d="M8.52344 31.6414C8.62118 31.9224 8.74336 32.1911 8.86554 32.4599C9.7451 34.5368 10.9302 36.4548 12.4084 38.153C13.0926 38.9227 13.8745 39.619 14.7175 40.2176C15.1573 40.5353 15.6093 40.8285 16.0736 41.0851C16.4277 41.2684 16.7943 41.4149 17.1731 41.5127H17.2587C17.2219 41.5616 17.3442 41.5493 17.3807 41.5737C17.7472 41.6715 18.1016 41.7815 18.4681 41.8548C18.9934 41.928 19.5309 41.9403 20.0563 41.8914C20.3984 41.8669 20.7283 41.818 21.0581 41.7448C21.0704 41.6959 20.9603 41.7204 20.9237 41.6959C20.6306 41.6593 20.3497 41.5737 20.0808 41.4394C19.8486 41.4394 19.592 41.4272 19.3355 41.4149C18.3948 41.4272 17.4663 41.2072 16.6356 40.7675C15.3772 40.1688 14.2533 39.338 13.3126 38.2997C12.2375 37.1024 11.2724 35.8074 10.4417 34.4268C10.234 34.1092 9.9896 33.8038 9.78189 33.4862C9.3544 32.8875 8.95121 32.2645 8.54801 31.6537C8.56009 31.6414 8.5478 31.6414 8.52344 31.6414Z" fill="black"/>
<path opacity="0.5" d="M8.60944 31.6048C8.585 31.6415 8.65838 31.6537 8.67053 31.6781C11.3949 33.8161 14.4859 35.4775 17.7722 36.5771C20.1911 37.3712 22.6956 37.8477 25.2367 37.982C26.0552 38.0309 26.8616 38.0187 27.6802 37.9943C28.4009 37.9576 29.1217 37.8843 29.8303 37.7744C29.8303 37.7621 29.8426 37.7499 29.8426 37.7377V37.7621C29.8792 37.7865 29.9403 37.7499 29.9892 37.7499C31.5895 37.4811 33.1167 36.8947 34.4728 35.9907C35.6577 35.1966 36.6107 34.097 37.2459 32.8265C37.3803 32.5455 37.5025 32.2523 37.6125 31.9469C37.637 31.8858 37.637 31.8858 37.6003 31.9346C37.4048 32.1423 37.1971 32.35 36.9771 32.5333C36.855 32.7165 36.7205 32.912 36.5862 33.1075C36.3542 33.4251 36.1098 33.7427 35.951 33.9505C35.4256 34.488 34.8514 34.9645 34.2406 35.392C32.9211 36.2594 31.4429 36.8703 29.9035 37.1757C29.8912 37.1757 29.8668 37.1879 29.8546 37.2001C29.8059 37.1879 29.7447 37.2245 29.6959 37.2245C28.6453 37.42 27.5702 37.5177 26.5073 37.5177C24.1983 37.4933 21.9015 37.1512 19.6779 36.4915C16.9046 35.6852 14.2414 34.5613 11.7247 33.1318C11.5171 33.0097 11.2849 32.9242 11.0651 32.8264C10.2464 32.4599 9.4402 32.0567 8.65838 31.6047C8.63388 31.6048 8.62173 31.5926 8.60944 31.6048Z" fill="black"/>
<path opacity="0.5" d="M39.4084 15.1121C39.384 15.1488 39.4206 15.1976 39.4328 15.2464C39.5184 15.5152 39.6772 16.1505 39.7506 16.4437C39.775 16.9324 39.6772 17.4089 39.4696 17.8487C39.0542 18.6672 38.4801 19.4002 37.7837 20.0111C36.6964 20.9884 35.4991 21.868 34.2407 22.6133C32.4082 23.7128 30.5024 24.6902 28.5476 25.5576C28.511 25.582 28.4621 25.582 28.4376 25.6186C28.2422 25.6797 28.0713 25.7774 27.8757 25.8508C26.2997 26.5349 24.7114 27.1824 23.0866 27.7321C20.3988 28.624 17.6502 29.3326 14.8647 29.8702C13.2276 30.1878 11.5782 30.4566 9.92901 30.6764C9.4648 30.8353 8.98836 30.9696 8.52401 31.1163C8.49964 31.1651 8.60954 31.1285 8.63404 31.1285C11.0408 30.9941 13.4353 30.652 15.781 30.1023C18.9208 29.3937 21.9994 28.4652 25.0046 27.329C26.373 26.8159 27.7292 26.2539 29.073 25.6431C29.073 25.6309 29.073 25.6187 29.0608 25.6187H29.1341C31.3209 24.6413 33.4223 23.5052 35.4257 22.2101C36.562 21.4771 37.6126 20.6341 38.5656 19.669C39.1642 19.0826 39.6408 18.374 39.9828 17.6043C40.1416 17.2256 40.2026 16.8103 40.1661 16.4071C40.1171 15.9795 39.9217 15.5763 39.6408 15.2587C39.5673 15.2098 39.4939 15.1609 39.4084 15.1121Z" fill="black"/>
<path opacity="0.5" d="M0.387874 18.1663C0.35122 18.2518 0.326923 18.3373 0.314566 18.4228C0.155801 19.0459 0.0702749 19.6811 0.0825623 20.3164C0.0702749 20.6585 0.0825623 21.0128 0.131296 21.3549C0.119078 21.4037 0.143652 21.4282 0.168019 21.4404C0.155801 21.4404 0.143652 21.4648 0.155801 21.4771C0.375656 22.8332 0.901031 24.1282 1.68292 25.2643C2.64807 26.6571 3.82086 27.9032 5.16471 28.9538C6.1543 29.7357 7.20491 30.4565 8.29231 31.0795C8.32897 31.0918 8.32897 31.0551 8.30453 31.0429C7.65698 30.5176 7.02171 29.9556 6.41081 29.3936C5.99553 29.0271 5.5679 28.6972 5.15249 28.3308C3.8941 27.2679 2.7824 26.034 1.87833 24.6534C1.31631 23.786 0.91318 22.8208 0.668958 21.8191C0.632165 21.6969 0.620086 21.5869 0.583432 21.4648C0.571075 21.4648 0.558927 21.4525 0.546639 21.4525H0.583432C0.583432 21.3548 0.546639 21.2571 0.546639 21.1593C0.461113 20.5241 0.448895 19.8888 0.509985 19.2535C0.509985 19.0703 0.473262 18.887 0.461113 18.7037C0.448895 18.5205 0.436746 18.3617 0.424459 18.1906C0.41238 18.1784 0.400162 18.1663 0.387874 18.1663Z" fill="black"/>
<path opacity="0.5" d="M11.9564 2.52832C11.2113 2.67483 10.5027 2.94363 9.84293 3.31014C9.84293 3.32232 9.85515 3.33457 9.86737 3.33457H9.80635C8.60912 4.03096 7.60738 5.00827 6.84986 6.16891C6.01918 7.4517 5.40827 8.86885 5.02959 10.3594C4.73635 11.4833 4.54079 12.6439 4.44319 13.8045C4.44319 13.8289 4.44319 13.8289 4.45541 13.8411H4.44319C4.40647 14.2077 4.39432 14.562 4.3821 14.9285C4.36981 15.5882 4.36981 16.2479 4.39432 16.9076C4.45541 18.2636 4.62646 19.6197 4.88304 20.9637H4.90747H4.88304C4.91969 21.2202 4.993 21.4768 5.04187 21.7456C5.65264 24.5188 6.63008 27.2066 7.92498 29.7354C8.05945 29.992 8.18163 30.2486 8.32824 30.4929C8.37705 30.4929 8.32824 30.4318 8.32824 30.4074C7.98614 29.5034 7.68062 28.5748 7.43647 27.6341C7.28985 27.2188 7.10658 26.8156 6.9599 26.4002C6.31241 24.6409 5.81147 22.8207 5.48172 20.9759H5.45722H5.46937C5.39613 20.5239 5.32282 20.0718 5.26173 19.6199C5.07846 18.3737 4.993 17.1154 5.00515 15.857C5.00515 15.1973 5.02959 14.5254 5.09068 13.8656C5.09068 13.8412 5.06624 13.8412 5.05402 13.8412H5.09068C5.12733 13.7802 5.10289 13.7069 5.11518 13.6458C5.28616 11.5811 5.84819 9.56531 6.75226 7.70835C7.49742 6.21785 8.57254 4.92285 9.89194 3.92104C10.1607 3.71333 10.4418 3.54238 10.7106 3.35908H10.7228C10.9304 3.26144 11.1137 3.12704 11.3214 3.02926C11.4924 2.95595 11.639 2.85821 11.7857 2.74824C11.859 2.68719 11.9322 2.6261 11.9933 2.56501C11.9808 2.5405 11.9686 2.52832 11.9564 2.52832ZM9.9774 3.33457H9.98955H9.91624C9.94061 3.33457 9.96504 3.33457 9.9774 3.33457Z" fill="black"/>
<path opacity="0.5" d="M26.8739 1.66097C26.4584 1.67316 26.0553 1.75865 25.6643 1.90526C24.7237 2.28402 23.8563 2.80933 23.0743 3.45685C22.6346 3.81114 22.2191 4.18983 21.8039 4.58084C21.8039 4.59302 21.8039 4.59302 21.8161 4.59302H21.7794C21.083 5.27723 20.4233 5.98584 19.788 6.71875C18.6763 8.02601 17.65 9.38204 16.6971 10.7992C16.0374 11.7766 15.4144 12.7906 14.8157 13.8046C14.8157 13.8168 14.8279 13.829 14.8279 13.829H14.7913C13.4718 16.1258 12.299 18.5081 11.285 20.9515L11.2972 20.9637H11.285C10.4419 22.9917 9.74571 25.0686 9.18375 27.1821C8.89052 28.3061 8.63394 29.4545 8.46289 30.6029C8.49954 30.6395 8.51176 30.5418 8.52398 30.5296C8.75598 30.0408 8.9882 29.5522 9.22034 29.0513C9.34245 28.7337 9.42798 28.4161 9.53794 28.0984C10.2221 25.9482 11.004 23.8225 11.8592 21.7211C11.957 21.4768 12.0669 21.2202 12.1647 20.9759L12.1524 20.9637H12.1647C12.2135 20.866 12.2624 20.756 12.3113 20.646C13.2886 18.337 14.3759 16.0769 15.5854 13.8779C15.5977 13.8656 15.5977 13.8535 15.5977 13.8412C15.6832 13.7313 15.732 13.5968 15.8052 13.4747C17.137 11.0557 18.7129 8.78342 20.5088 6.69435C21.1562 5.9613 21.8526 5.26491 22.5735 4.61742C22.5735 4.60521 22.5612 4.60521 22.5612 4.59302H22.61C23.3798 3.90888 24.2349 3.3102 25.1513 2.8338C25.8353 2.46722 26.5928 2.25959 27.3625 2.23512C27.7901 2.23512 28.2176 2.34504 28.5964 2.55279C28.7186 2.61388 28.8285 2.66278 28.9506 2.71162C28.9874 2.68722 28.9261 2.66278 28.9139 2.63831C28.7552 2.41839 28.5597 2.23519 28.3276 2.08857C28.1077 1.92974 27.8633 1.80756 27.5946 1.74646C27.3626 1.67316 27.1182 1.64872 26.8739 1.66097Z" fill="black"/>
<path d="M39.3929 15.1021C39.4173 15.1998 39.4416 15.322 39.4783 15.4197C39.9791 15.9573 40.1258 16.727 39.8815 17.4111C39.2585 18.7427 38.3177 19.879 37.1205 20.7341C34.5182 22.6888 31.6839 24.3136 28.6908 25.5965C23.975 27.7222 19.0272 29.2982 13.9571 30.3122C12.3812 30.6176 10.7929 30.8253 9.19243 30.9353C9.08246 30.9719 8.58159 31.1185 8.44727 31.1552C9.87664 31.1063 11.2938 30.9597 12.6987 30.7154C17.671 29.8602 22.5333 28.4431 27.188 26.4883C30.4744 25.1811 33.5897 23.5074 36.4973 21.4916C37.8779 20.5875 39.0264 19.378 39.857 17.9487C40.2357 17.2889 40.2846 16.4827 39.9914 15.7863C39.8693 15.4808 39.6616 15.2364 39.3929 15.1021Z" fill="#FF5599"/>
<path d="M26.882 1.65114C25.5383 1.83441 24.2799 2.39637 23.2781 3.30044C21.7754 4.54654 20.3949 5.93936 19.1732 7.45422C16.0945 11.3148 13.5534 15.5662 11.6354 20.1232C10.206 23.3729 9.16749 26.7814 8.52007 30.2633C8.52007 30.2999 8.45898 30.6909 8.45898 30.6909C8.49564 30.6297 8.70334 30.1777 8.73993 30.0922C8.97207 28.8583 9.26524 27.6244 9.61956 26.4149C11.0245 21.9069 12.9792 17.5699 15.4104 13.5261C17.3039 10.2153 19.6252 7.1732 22.3373 4.48545C23.4369 3.34927 24.8052 2.49419 26.3079 2.01768C27.1142 1.80998 27.9694 2.01768 28.6046 2.55528C28.7879 2.64077 28.8979 2.67746 29.0078 2.72629C28.8734 2.54302 28.7146 2.35979 28.5435 2.21324C28.0672 1.84663 27.4807 1.63896 26.882 1.65114Z" fill="#FF5599"/>
<path d="M12.0027 2.51855C9.8037 2.99495 7.91005 4.35102 6.74947 6.28133C5.22236 8.88352 4.40382 11.84 4.37931 14.8575C4.28157 20.1231 5.53996 25.3153 8.03223 29.9455C8.47207 30.7641 8.58197 31.045 8.13004 29.8844C8.05666 29.6646 7.91005 29.2247 7.91005 29.2247C7.4947 28.3451 7.09158 27.5144 6.76162 26.6225C5.41785 23.2995 4.69705 19.7689 4.61146 16.1893C4.55037 13.8069 4.90462 11.4246 5.68657 9.17665C6.4318 6.79438 8.00779 4.75414 10.1335 3.42255C10.6466 3.1171 11.2087 2.88496 11.7828 2.70169L12.0027 2.51855Z" fill="#FF5599"/>
<path d="M0.347245 18.2905C0.0906661 19.2312 0.00513988 20.2208 0.0906661 21.1981C0.396047 23.2628 1.32462 25.1931 2.76614 26.7202C4.22001 28.3329 5.91818 29.7133 7.79955 30.8129C7.84835 30.8495 8.1538 31.0206 8.44703 31.1916C7.75068 30.6174 7.57969 30.4586 7.26202 30.1898C6.46792 29.6644 5.69819 29.1024 4.97746 28.4916C2.92504 26.9279 1.38571 24.7899 0.554951 22.3465C0.225064 21.1614 0.18848 19.9153 0.444989 18.7059C0.432771 18.5959 0.408335 18.1194 0.408335 18.1194L0.347245 18.2905Z" fill="#FF5599"/>
<path d="M2.74218 30.996C2.57106 31.3258 2.69331 31.729 3.02312 31.9C3.04756 31.9122 3.07193 31.9244 3.10865 31.9367C3.91497 32.181 4.78238 32.1932 5.60092 31.9977C6.566 31.8266 7.50672 31.5946 8.43522 31.2769C8.36198 31.2647 8.28868 31.2647 8.21537 31.2769C6.84709 31.68 5.4298 31.9121 4.01271 31.9367C3.2552 31.9244 2.88879 31.6434 2.81555 31.1914C2.80327 31.1059 2.80327 31.0081 2.81555 30.9227C2.81555 30.9104 2.80327 30.8982 2.79112 30.8738L2.74218 30.996Z" fill="#FF5599"/>
<path d="M8.44727 31.4968C8.52057 31.68 8.66712 32.0221 8.69163 32.071C9.74217 34.8076 11.3915 37.2632 13.5173 39.279C14.6168 40.3541 15.9607 41.1482 17.439 41.6002C18.062 41.8201 18.7096 41.93 19.3693 41.93C19.9557 41.9423 20.5299 41.869 21.0918 41.7346C21.0064 41.7224 20.652 41.6613 20.6399 41.6613C20.2244 41.7224 19.8091 41.7468 19.3937 41.7224C18.2086 41.6857 17.0481 41.3558 16.0218 40.7572C13.2974 39.1201 11.1227 36.7134 9.75453 33.8547C9.55911 33.4759 9.14362 32.5963 9.07039 32.4741C8.86261 32.1321 8.60603 31.7289 8.44727 31.4968Z" fill="#FF5599"/>
<path d="M8.44727 31.4968C8.64262 31.68 9.15584 32.0588 9.36355 32.2054C13.6273 35.4184 18.7096 37.3854 24.0239 37.8984C25.5632 38.0695 27.1148 38.0695 28.654 37.9351C31.2685 37.813 33.7485 36.7867 35.6788 35.0275C36.5706 34.1601 37.2547 33.085 37.6457 31.9C37.5846 31.961 37.4014 32.1687 37.3403 32.2298C36.9493 33.0239 36.4607 33.7691 35.862 34.4167C33.9439 36.3347 31.4027 37.4953 28.7029 37.6908C24.4514 38.0695 20.1877 37.3854 16.266 35.7116C13.8226 34.7098 11.4893 33.4637 9.2901 31.9977C9.20471 31.9244 8.72821 31.6678 8.44727 31.4968Z" fill="#FF5599"/>
<path d="M8.44714 31.4968C7.94627 32.6329 7.56758 33.818 7.29871 35.0275C7.12766 35.7117 7.13995 36.4203 7.32322 37.0922C7.56758 37.5076 8.05623 37.7398 8.53266 37.6664C8.48386 37.6298 8.3739 37.5564 8.36161 37.5564C8.21506 37.532 8.06845 37.4832 7.93412 37.4221C7.51864 37.1655 7.29871 36.689 7.34772 36.2126C7.34772 35.7361 7.40881 35.2719 7.51877 34.8077C7.71419 33.9403 7.98299 33.0973 8.33724 32.291C8.3739 32.0099 8.41048 31.7534 8.44714 31.4968Z" fill="#FF5599"/>
<path d="M0.426956 18.0254C-1.43005 23.9383 4.07987 28.7275 8.44129 31.1952C7.59824 31.1586 2.85813 31.3174 1.80752 29.5582C-0.245036 25.2334 -0.171797 19.1371 0.426956 18.0254Z" fill="#DEDEDE"/>
<path d="M39.3972 15.46C39.9958 15.7409 40.1791 16.7427 40.1791 16.987C40.0814 22.6191 20.18 31.0488 8.43945 31.4886C16.356 36.1921 31.0041 38.0857 37.2714 32.2582C39.0307 30.6211 41.8773 24.8792 40.1545 16.8893C40.1668 16.3151 39.8857 15.7776 39.3972 15.46Z" fill="#DEDEDE"/>
<path d="M8.45117 30.6946C17.113 28.2634 35.9271 18.1234 38.7737 13.0411C38.8836 12.8456 38.9202 12.6257 38.8836 12.4058C38.8592 11.5017 35.5851 5.97968 31.0526 3.463C30.8692 3.40191 30.6738 3.40191 30.4905 3.45075C28.5725 3.85388 25.115 6.56611 21.1568 11.2085C16.0257 17.0726 11.7497 23.6332 8.45117 30.6946Z" fill="#DEDEDE"/>
<path d="M37.6501 31.8672C36.5385 35.0924 33.2887 37.9757 26.8504 38.0001C20.1432 38.0001 13.6561 35.7033 8.43945 31.4885C10.9806 35.4101 15.0121 41.2743 21.9269 41.8118C24.3459 41.9951 28.9028 40.2847 30.9185 39.002C34.3517 36.8273 37.2103 33.8952 37.6501 31.8672Z" fill="#DEDEDE"/>
<path d="M21.1088 41.7264C20.8644 41.7875 20.6079 41.8363 20.3636 41.8607C19.6427 41.9585 18.8975 41.9341 18.1767 41.7875C16.9917 41.5797 15.88 41.0789 14.9271 40.358C10.9077 37.6459 9.09958 32.9668 8.43988 31.4885C7.93894 34.9825 8.17108 38.0857 9.91812 39.0875C11.885 40.2603 14.0475 41.1033 16.2953 41.5675C17.065 41.7386 17.8469 41.8485 18.6287 41.8973C18.8853 41.9218 19.1541 41.9218 19.423 41.9096C19.9849 41.9219 20.559 41.8486 21.1088 41.7264Z" fill="#DEDEDE"/>
<path d="M8.53705 37.6581C8.12171 37.7192 7.70629 37.5604 7.42535 37.2427C7.20542 36.8396 7.11997 36.3631 7.18099 35.911C7.37648 34.3839 7.80404 32.8934 8.43931 31.5007C7.10768 31.9406 3.58937 32.9057 2.78291 31.9039C2.7952 31.9283 2.69739 31.7817 2.77063 31.9039C3.63811 33.3211 4.65213 34.6405 5.80049 35.8255C6.2159 36.2776 6.65568 36.6929 7.13218 37.0839C7.48644 37.4747 7.99953 37.6825 8.53705 37.6581Z" fill="#DEDEDE"/>
<path d="M12.0075 2.52222C4.12752 4.06155 1.39089 17.9155 8.45235 30.7067C3.60228 26.834 0.548053 22.2892 0.401367 17.5369C1.06114 9.73023 8.83111 2.72992 12.0075 2.52222Z" fill="#DEDEDE"/>
<path d="M29.0015 2.742C26.8269 -0.226705 22.1844 3.15738 17.4931 9.65681C13.5837 15.0689 9.57662 23.4131 8.44048 30.6944C5.65491 23.8529 4.0424 8.93602 11.9955 2.52207C17.4687 -1.27739 27.4744 0.823942 28.7572 2.47324C28.8304 2.54651 28.7205 2.41215 29.0015 2.742Z" fill="#DEDEDE"/>
<path d="M20.0244 0.384336C17.1901 0.298809 14.3924 1.05622 11.9978 2.5589C4.04453 9.10721 5.65724 24.3173 8.44274 31.281C9.56666 23.8653 13.586 15.3501 17.4954 9.828C21.5148 4.15932 25.4976 0.811932 27.9165 1.86258C25.4243 0.824115 22.7364 0.310993 20.0244 0.384336ZM27.9165 1.87483C28.1242 1.98476 28.332 2.10694 28.5152 2.25352C28.3441 2.10694 28.1364 1.97251 27.9165 1.87483ZM8.44274 31.2932C17.1046 28.8132 35.9187 18.4776 38.7651 13.2976C38.8752 13.1022 38.9118 12.87 38.8752 12.6501C38.8507 11.7339 35.5766 6.08963 31.0442 3.52406C30.8609 3.46297 30.6655 3.46297 30.4822 3.5118C28.564 3.92718 25.1067 6.68821 21.1484 11.4161C16.0172 17.4148 11.7291 24.0974 8.44274 31.2932ZM8.44274 31.2932C16.3593 36.0944 31.0074 38.0125 37.2747 32.0751C37.409 31.9529 37.5314 31.8185 37.6412 31.6841C39.3882 29.6194 41.746 24.0241 40.17 16.4496C40.17 16.4618 40.17 16.4862 40.17 16.4985C40.0845 22.2405 20.1832 30.829 8.44274 31.2932ZM8.44274 31.2932C10.8739 35.1293 14.6855 40.7858 21.0995 41.7265C21.3682 41.7631 21.6493 41.7998 21.9302 41.8242C24.3492 42.0197 28.9061 40.2604 30.9219 38.9654C34.3549 36.7419 37.2136 33.7732 37.6534 31.6963C36.5417 34.9827 33.2798 37.9147 26.8536 37.9514C20.1343 37.927 13.6226 35.5813 8.44274 31.2932ZM8.44274 31.2932C7.94187 34.8606 8.17402 38.0125 9.92099 39.051C11.888 40.2483 14.0503 41.1033 16.2982 41.5799C17.0679 41.7509 17.8498 41.8609 18.6316 41.922C18.8882 41.9463 19.157 41.9463 19.4258 41.9342C19.0104 41.9464 18.5827 41.9097 18.1796 41.812C16.9945 41.5921 15.8828 41.0912 14.9299 40.3582C10.9105 37.5605 9.1146 32.7959 8.44274 31.2932ZM8.44274 31.2932C7.11105 31.7452 3.59267 32.7226 2.78628 31.7085C2.7985 31.7208 2.70076 31.5742 2.77407 31.7085C3.62926 33.1502 4.65543 34.494 5.80386 35.7035C6.21927 36.1555 6.65905 36.5831 7.12334 36.9862C7.30661 37.145 7.48981 37.2794 7.69744 37.4016C7.58741 37.3405 7.48981 37.255 7.40428 37.1572C7.18443 36.7419 7.09883 36.2654 7.15985 35.8012C7.37978 34.2374 7.80748 32.7226 8.44274 31.2932ZM8.44274 31.2932C4.72881 29.1552 0.19627 25.3069 0.0619413 20.4934C0.000851206 23.6209 0.587247 26.7362 1.80898 29.6194C2.85959 31.4153 7.5997 31.2565 8.44274 31.2932ZM8.44274 31.2932C1.38128 18.2699 4.11798 4.12267 12.0101 2.57115C8.8458 2.77883 1.0759 9.92575 0.403977 17.8667C0.403977 17.8912 0.403977 17.9034 0.403977 17.9278C0.257291 18.331 0.171765 18.7463 0.13518 19.1739C0.19627 18.7708 0.281866 18.3676 0.403977 17.9644C0.587108 22.7658 3.62926 27.3593 8.44274 31.2932ZM0.135111 19.1617C0.0740205 19.6015 0.0495845 20.0536 0.0618025 20.4934C0.0740205 19.9925 0.098526 19.5528 0.135111 19.1617ZM21.0995 41.7142C20.7453 41.7998 20.3786 41.8609 20.0122 41.8853C20.1343 41.8731 20.2442 41.8609 20.3542 41.8486C20.6107 41.8242 20.8551 41.7753 21.0995 41.7142ZM40.1824 16.4496C40.17 16.2663 40.1335 16.0831 40.0845 15.912C40.1335 16.0709 40.1579 16.2297 40.1824 16.4007V16.4496ZM28.5762 2.30239C28.6008 2.32679 28.6373 2.36348 28.674 2.38788C28.6251 2.36348 28.6008 2.32679 28.5762 2.30239ZM28.7106 2.42461C28.7351 2.44897 28.7595 2.47341 28.7839 2.51006C28.8449 2.58341 28.7351 2.44904 29.016 2.79108C28.9182 2.6689 28.8084 2.54672 28.7106 2.42461ZM39.5104 14.9958C39.6326 15.0935 39.7426 15.2035 39.828 15.3379C39.7426 15.2035 39.6326 15.0935 39.5104 14.9958ZM39.828 15.3379C39.8404 15.3622 39.8525 15.3867 39.877 15.4112C39.8525 15.3867 39.8402 15.3622 39.828 15.3379ZM39.9136 15.4845C39.938 15.5211 39.9502 15.5577 39.9746 15.6066C39.9502 15.57 39.9258 15.5333 39.9136 15.4845ZM39.9747 15.6066C39.9868 15.6433 40.0113 15.6922 40.0236 15.7288C39.999 15.6922 39.9868 15.6433 39.9747 15.6066ZM40.0236 15.7288C40.0358 15.7654 40.0479 15.8021 40.0602 15.8388C40.0358 15.8021 40.0236 15.7654 40.0236 15.7288ZM7.88072 37.475C8.02733 37.5482 8.18617 37.5849 8.345 37.5849C8.18617 37.585 8.02733 37.5483 7.88072 37.475Z" fill="url(#paint3_radial_59_1924)"/>
<path opacity="0.5" d="M20.0244 0.384336C17.1901 0.298809 14.3924 1.05622 11.9978 2.5589C4.04453 9.10721 5.65724 24.3173 8.44274 31.281C9.56666 23.8653 13.586 15.3501 17.4954 9.828C21.5148 4.15932 25.4976 0.811932 27.9165 1.86258C25.4243 0.824115 22.7364 0.310993 20.0244 0.384336ZM27.9165 1.87483C28.1242 1.98476 28.332 2.10694 28.5152 2.25352C28.3441 2.10694 28.1364 1.97251 27.9165 1.87483ZM8.44274 31.2932C17.1046 28.8132 35.9187 18.4776 38.7651 13.2976C38.8752 13.1022 38.9118 12.87 38.8752 12.6501C38.8507 11.7339 35.5766 6.08963 31.0442 3.52406C30.8609 3.46297 30.6655 3.46297 30.4822 3.5118C28.564 3.92718 25.1067 6.68821 21.1484 11.4161C16.0172 17.4148 11.7291 24.0974 8.44274 31.2932ZM8.44274 31.2932C16.3593 36.0944 31.0074 38.0125 37.2747 32.0751C37.409 31.9529 37.5314 31.8185 37.6412 31.6841C39.3882 29.6194 41.746 24.0241 40.17 16.4496C40.17 16.4618 40.17 16.4862 40.17 16.4985C40.0845 22.2405 20.1832 30.829 8.44274 31.2932ZM8.44274 31.2932C10.8739 35.1293 14.6855 40.7858 21.0995 41.7265C21.3682 41.7631 21.6493 41.7998 21.9302 41.8242C24.3492 42.0197 28.9061 40.2604 30.9219 38.9654C34.3549 36.7419 37.2136 33.7732 37.6534 31.6963C36.5417 34.9827 33.2798 37.9147 26.8536 37.9514C20.1343 37.927 13.6226 35.5813 8.44274 31.2932ZM8.44274 31.2932C7.94187 34.8606 8.17402 38.0125 9.92099 39.051C11.888 40.2483 14.0503 41.1033 16.2982 41.5799C17.0679 41.7509 17.8498 41.8609 18.6316 41.922C18.8882 41.9463 19.157 41.9463 19.4258 41.9342C19.0104 41.9464 18.5827 41.9097 18.1796 41.812C16.9945 41.5921 15.8828 41.0912 14.9299 40.3582C10.9105 37.5605 9.1146 32.7959 8.44274 31.2932ZM8.44274 31.2932C7.11105 31.7452 3.59267 32.7226 2.78628 31.7085C2.7985 31.7208 2.70076 31.5742 2.77407 31.7085C3.62926 33.1502 4.65543 34.494 5.80386 35.7035C6.21927 36.1555 6.65905 36.5831 7.12334 36.9862C7.30661 37.145 7.48981 37.2794 7.69744 37.4016C7.58741 37.3405 7.48981 37.255 7.40428 37.1572C7.18443 36.7419 7.09883 36.2654 7.15985 35.8012C7.37978 34.2374 7.80748 32.7226 8.44274 31.2932ZM8.44274 31.2932C4.72881 29.1552 0.19627 25.3069 0.0619413 20.4934C0.000851206 23.6209 0.587247 26.7362 1.80898 29.6194C2.85959 31.4153 7.5997 31.2565 8.44274 31.2932ZM8.44274 31.2932C1.38128 18.2699 4.11798 4.12267 12.0101 2.57115C8.8458 2.77883 1.0759 9.92575 0.403977 17.8667C0.403977 17.8912 0.403977 17.9034 0.403977 17.9278C0.257291 18.331 0.171765 18.7463 0.13518 19.1739C0.19627 18.7708 0.281866 18.3676 0.403977 17.9644C0.587108 22.7658 3.62926 27.3593 8.44274 31.2932ZM0.135111 19.1617C0.0740205 19.6015 0.0495845 20.0536 0.0618025 20.4934C0.0740205 19.9925 0.098526 19.5528 0.135111 19.1617ZM21.0995 41.7142C20.7453 41.7998 20.3786 41.8609 20.0122 41.8853C20.1343 41.8731 20.2442 41.8609 20.3542 41.8486C20.6107 41.8242 20.8551 41.7753 21.0995 41.7142ZM40.1824 16.4496C40.17 16.2663 40.1335 16.0831 40.0845 15.912C40.1335 16.0709 40.1579 16.2297 40.1824 16.4007V16.4496ZM28.5762 2.30239C28.6008 2.32679 28.6373 2.36348 28.674 2.38788C28.6251 2.36348 28.6008 2.32679 28.5762 2.30239ZM28.7106 2.42461C28.7351 2.44897 28.7595 2.47341 28.7839 2.51006C28.8449 2.58341 28.7351 2.44904 29.016 2.79108C28.9182 2.6689 28.8084 2.54672 28.7106 2.42461ZM39.5104 14.9958C39.6326 15.0935 39.7426 15.2035 39.828 15.3379C39.7426 15.2035 39.6326 15.0935 39.5104 14.9958ZM39.828 15.3379C39.8404 15.3622 39.8525 15.3867 39.877 15.4112C39.8525 15.3867 39.8402 15.3622 39.828 15.3379ZM39.9136 15.4845C39.938 15.5211 39.9502 15.5577 39.9746 15.6066C39.9502 15.57 39.9258 15.5333 39.9136 15.4845ZM39.9747 15.6066C39.9868 15.6433 40.0113 15.6922 40.0236 15.7288C39.999 15.6922 39.9868 15.6433 39.9747 15.6066ZM40.0236 15.7288C40.0358 15.7654 40.0479 15.8021 40.0602 15.8388C40.0358 15.8021 40.0236 15.7654 40.0236 15.7288ZM7.88072 37.475C8.02733 37.5482 8.18617 37.5849 8.345 37.5849C8.18617 37.585 8.02733 37.5483 7.88072 37.475Z" fill="url(#paint4_radial_59_1924)"/>
<path d="M55.7007 15.19C57.4965 15.019 59.3047 15.1534 61.0518 15.581C60.9663 16.3384 60.893 17.0959 60.7952 17.8411C59.8056 17.7434 58.8037 17.6457 57.8142 17.5479C57.3134 17.4502 56.8003 17.4869 56.3115 17.6457C55.9695 17.8045 55.7251 18.11 55.6396 18.4764C55.4931 18.8674 55.5176 19.3071 55.6885 19.6859C55.9695 20.0279 56.3605 20.2723 56.788 20.3822C58.0098 20.6143 59.207 21.0175 60.3188 21.5795C60.7464 21.8605 61.0762 22.2514 61.2839 22.7279C61.6016 23.5831 61.6627 24.5238 61.4428 25.4157C61.3817 25.7333 61.2716 26.0387 61.1374 26.332C60.7587 27.1749 60.0378 27.8224 59.1581 28.1278C58.1442 28.4576 57.0568 28.5432 56.0062 28.3599L52.6832 27.8591C52.8298 27.0283 52.9764 26.1853 53.1353 25.3423C54.4913 25.6112 55.8718 25.7944 57.2646 25.8799C57.5945 25.9165 57.9121 25.8188 58.1686 25.6112C58.413 25.318 58.5596 24.9514 58.5718 24.5727C58.6329 24.2184 58.5107 23.8519 58.2297 23.6075C57.7654 23.3143 57.2523 23.1189 56.7148 23.0333C55.6396 22.899 54.6013 22.4836 53.7217 21.8483C53.013 21.1397 52.6221 20.1746 52.6343 19.1728C52.5855 18.3298 52.8176 17.4991 53.294 16.8149C53.8072 15.9352 54.699 15.3489 55.7007 15.19Z" fill="#D5307F"/>
<path d="M66.0847 15.3489H69.8964C71.2159 19.6615 72.5232 23.9863 73.8424 28.2989C72.8284 28.2866 71.8144 28.3111 70.8127 28.2866C70.5805 27.407 70.3362 26.5395 70.1163 25.6722H65.8771L65.1685 28.2988H62.1387C63.4581 23.974 64.7653 19.6615 66.0847 15.3489V15.3489ZM66.4879 23.412H69.5054C69.0046 21.5551 68.5036 19.6859 68.0028 17.8167C67.4775 19.6737 66.9887 21.5429 66.4879 23.412Z" fill="#D5307F"/>
<path d="M72.9873 15.3489H82.8952V17.9511H79.4135C79.4011 21.3962 79.4135 24.8415 79.4135 28.2989H76.4692V17.9511H72.9874L72.9873 15.3489Z" fill="#D5307F"/>
<path d="M89.6018 15.813C89.6752 15.7764 89.7484 15.752 89.8338 15.7641H92.5095V28.2866C91.5687 28.2866 90.628 28.2987 89.6874 28.2743V18.8795L87.6594 20.1256C87.1951 19.3559 86.7309 18.5862 86.2666 17.8288C87.366 17.1691 88.4779 16.4972 89.6018 15.813Z" fill="#D5307F"/>
<path d="M83.1758 25.0125H86.1323V28.2988H83.1758V25.0125Z" fill="#D5307F"/>
<path d="M210.879 9.64307C215.167 9.64307 218.637 13.1127 218.637 17.4008C218.637 21.6891 215.167 25.1586 210.879 25.1586C206.591 25.1586 203.121 21.6891 203.121 17.4008C203.121 13.1127 206.603 9.64307 210.879 9.64307V9.64307ZM214.007 20.5406V12.7707L206.188 15.5805V17.5108L208.778 16.5701V22.4098L214.007 20.5406ZM210.879 10.7792C207.226 10.7792 204.258 13.748 204.258 17.4009C204.258 21.0537 207.226 24.0225 210.879 24.0225C214.532 24.0225 217.501 21.0537 217.501 17.4009C217.513 13.748 214.544 10.7792 210.879 10.7792ZM149.098 24.8165H144.834L146.875 17.8162L149.098 24.8165ZM177.38 32.1345L177.148 29.9721C174.472 30.4974 175.279 23.375 172.164 23.0083C174.448 22.4342 176.048 20.3573 176.024 17.9994C176.024 14.432 173.348 12.7828 168.853 12.7828C166.092 12.7828 162.512 12.9294 161.791 12.9294H159.604V14.7376C160.35 15.2507 161.156 15.6661 161.999 15.9714V29.3001C161.144 29.5689 160.337 29.9843 159.604 30.5097V32.3544H168.498V30.5097C167.998 30.0331 167.436 29.6178 166.825 29.3001V24.4867H167.692C170.685 24.4867 169.647 32.672 174.057 32.672C175.181 32.7087 176.317 32.5253 177.38 32.1345ZM171.015 18.6592C171.235 20.1374 170.209 21.5058 168.731 21.7134C168.535 21.7378 168.328 21.75 168.132 21.7378H166.837V15.6904C167.216 15.6171 167.607 15.5805 167.985 15.5683C169.525 15.4339 170.881 16.57 171.015 18.1094C171.04 18.2927 171.04 18.4759 171.015 18.6592ZM199.835 22.2265C199.835 15.4339 196.378 12.8073 190.122 12.8073C187.496 12.8073 184.246 12.9294 182.694 12.9294H180.361V14.7497C181.106 15.2507 181.913 15.6783 182.756 16.0203V29.3001C181.901 29.5812 181.094 29.9965 180.361 30.5341V32.3789H182.78C183.648 32.3789 186.702 32.5011 188.803 32.5011C195.083 32.4765 199.835 28.8726 199.835 22.2265ZM194.728 22.6542C194.728 27.3455 192.688 29.4224 190.061 29.4224C189.231 29.459 188.388 29.3613 187.581 29.1292V15.6539C188.155 15.5928 188.73 15.5683 189.304 15.5683C193.641 15.5683 194.728 18.8547 194.728 22.6542ZM157.161 32.3666V30.5219C156.77 30.0576 156.306 29.6544 155.781 29.3369L150.1 12.8683H145.347L139.679 29.3489C139.055 29.6422 138.494 30.0454 138.005 30.5339V32.3788H145.176V30.5339C144.675 30.0576 144.113 29.6666 143.503 29.3489L144.052 27.5408H149.904L150.515 29.3489C149.88 29.6544 149.281 30.0576 148.756 30.5339V32.3788L157.161 32.3666Z" fill="#0F1D46"/>
<path d="M273.063 37.6629H272.782C272.636 37.6629 272.514 37.7362 272.44 37.8583L271.915 38.8968V41.0714L273.405 38.2004C273.442 38.1027 273.467 38.0294 273.467 37.9439C273.467 37.8461 273.43 37.7728 273.369 37.7362C273.295 37.6873 273.186 37.6629 273.063 37.6629ZM264.817 37.6629H264.536C264.267 37.6629 264.133 37.7606 264.133 37.9561C264.133 38.0294 264.157 38.1149 264.194 38.2126L266.026 41.8533C266.087 41.9632 266.173 42.0488 266.295 42.1098C266.405 42.1709 266.527 42.1954 266.662 42.1954C266.796 42.1954 266.918 42.1709 267.04 42.1098C267.138 42.0488 267.224 41.9755 267.285 41.8777L268.8 39.0678L270.29 41.8777C270.339 41.9755 270.425 42.061 270.534 42.1098C270.632 42.1465 270.754 42.1832 270.889 42.1832C271.011 42.1832 271.145 42.1465 271.255 42.0976C271.377 42.0365 271.463 41.9632 271.512 41.8655L271.683 41.5479V39.3733L270.913 40.8882L269.398 38.0905C269.337 37.9683 269.264 37.895 269.154 37.8339C269.056 37.785 268.934 37.7484 268.824 37.7484C268.69 37.7484 268.58 37.785 268.482 37.8461C268.372 37.895 268.287 37.9805 268.238 38.0905L266.711 40.8882L265.171 37.8828L265.025 37.7362L264.817 37.6629ZM271.915 38.8968L271.683 39.361V41.5357L271.915 41.0836V38.8968ZM271.915 38.8968L271.683 39.361V41.5357L271.915 41.0836V38.8968ZM278.146 37.6629H276.252C275.507 37.6629 274.92 37.785 274.468 38.0538C274.041 38.3104 273.821 38.6769 273.821 39.1167V40.8026C273.821 41.1936 274.004 41.5357 274.383 41.8411C274.554 41.9755 274.798 42.0854 275.116 42.1587C275.433 42.2198 275.824 42.2687 276.289 42.2687H276.936C277.193 42.2687 277.315 42.1343 277.315 41.8777V41.7922C277.315 41.5357 277.193 41.4135 276.936 41.4135H276.179C275.299 41.4135 274.859 41.0958 274.859 40.4606H279.893C279.99 40.4606 280.064 40.4239 280.1 40.3384C280.149 40.2529 280.174 40.1673 280.174 40.0452V38.9334C280.174 38.5303 279.966 38.2004 279.551 37.9683C279.172 37.7606 278.708 37.6629 278.146 37.6629ZM274.835 39.5809V39.0434C274.835 38.8724 274.981 38.738 275.299 38.628C275.568 38.5425 275.922 38.5058 276.362 38.5058H277.84C278.207 38.5058 278.524 38.5425 278.793 38.6524C279.074 38.7502 279.196 38.8601 279.196 38.9945V39.5687L274.835 39.5809ZM282.006 36.4167H281.75C281.493 36.4167 281.371 36.5389 281.371 36.7833V41.8655C281.371 42.1221 281.493 42.2564 281.75 42.2564H282.006C282.263 42.2564 282.373 42.1221 282.373 41.8655V36.7833C282.373 36.5267 282.263 36.4167 282.006 36.4167V36.4167ZM284.633 36.4167H284.364C284.107 36.4167 283.985 36.5389 283.985 36.7833V37.6873H283.631C283.375 37.6873 283.252 37.8095 283.252 38.066V38.1638C283.252 38.4203 283.375 38.5425 283.631 38.5425H283.985V41.8777C283.985 42.1343 284.108 42.2687 284.364 42.2687H284.633C284.889 42.2687 284.999 42.1343 284.999 41.8777V38.5425H286.6C286.856 38.5425 286.978 38.4203 286.978 38.1638V38.066C286.978 37.8095 286.856 37.6873 286.6 37.6873H284.999V36.7833C284.999 36.5267 284.889 36.4167 284.633 36.4167V36.4167ZM296.618 36.4167H296.361C296.117 36.4167 295.982 36.5389 295.982 36.7955V37.6995H292.965C292.146 37.6995 291.523 37.8461 291.12 38.1149C290.754 38.3592 290.57 38.6891 290.57 39.1289L290.558 40.9615C290.546 41.3402 290.717 41.6334 291.047 41.8533C291.462 42.1221 292.097 42.2687 292.977 42.2687H294.529C295.31 42.2687 295.934 42.1098 296.398 41.8044C296.801 41.5357 296.996 41.218 296.996 40.8515V36.7955C296.984 36.5389 296.862 36.4167 296.618 36.4167V36.4167ZM292.965 41.4135C292.452 41.4135 292.085 41.3768 291.877 41.2791C291.67 41.1936 291.572 41.0225 291.572 40.7782V39.1411C291.572 38.9457 291.67 38.7868 291.89 38.7013C292.11 38.6036 292.452 38.5547 292.928 38.5547H295.97V40.8515C295.97 41.0225 295.848 41.1691 295.579 41.2669C295.31 41.3768 294.932 41.4257 294.406 41.4257H292.965V41.4135ZM302.457 37.6629H300.564C299.819 37.6629 299.232 37.785 298.792 38.0538C298.365 38.3104 298.133 38.6769 298.133 39.1167V40.8026C298.133 41.1936 298.316 41.5357 298.707 41.8411C298.878 41.9755 299.122 42.0854 299.44 42.1587C299.757 42.2198 300.136 42.2687 300.613 42.2687H301.26C301.517 42.2687 301.627 42.1343 301.627 41.8777V41.7922C301.627 41.5357 301.504 41.4135 301.26 41.4135H300.503C299.623 41.4135 299.183 41.0958 299.183 40.4606H304.217C304.314 40.4606 304.388 40.4239 304.437 40.3384C304.473 40.2529 304.51 40.1673 304.51 40.0452V38.9334C304.51 38.5303 304.29 38.2004 303.875 37.9683C303.496 37.7606 303.032 37.6629 302.457 37.6629ZM299.147 39.5809V39.0434C299.147 38.8724 299.293 38.738 299.611 38.628C299.867 38.5425 300.222 38.5058 300.674 38.5058H302.14C302.506 38.5058 302.836 38.5425 303.105 38.6524C303.374 38.7502 303.508 38.8601 303.508 38.9945V39.5687L299.147 39.5809ZM308.309 37.6629H307.918C307.234 37.6629 306.697 37.785 306.293 38.0416C305.903 38.2859 305.707 38.6402 305.695 39.0923L305.683 41.8777C305.683 42.1343 305.805 42.2687 306.049 42.2687H306.33C306.574 42.2687 306.697 42.1343 306.697 41.8777V39.0923C306.697 38.9212 306.758 38.7868 306.917 38.6891C307.088 38.5791 307.405 38.5181 307.833 38.5181H308.297C308.554 38.5181 308.688 38.3837 308.688 38.1271V38.0294C308.688 37.785 308.554 37.6629 308.309 37.6629ZM322.004 37.6629H321.723C321.577 37.6629 321.467 37.7362 321.394 37.8583L319.854 40.8637L318.339 38.066C318.278 37.9439 318.205 37.8706 318.095 37.8095C317.985 37.7606 317.875 37.724 317.765 37.724C317.631 37.724 317.521 37.7606 317.423 37.8217C317.313 37.8706 317.228 37.9561 317.179 38.066L315.652 40.8637L314.112 37.8584L313.966 37.7118L313.77 37.6629H313.489C313.22 37.6629 313.074 37.7606 313.074 37.9561C313.074 38.0294 313.111 38.1149 313.147 38.2126L314.98 41.8533C315.041 41.9632 315.126 42.0488 315.236 42.1098C315.358 42.1709 315.468 42.1954 315.615 42.1954C315.749 42.1954 315.872 42.1709 315.982 42.1098C316.091 42.0488 316.177 41.9755 316.226 41.8777L317.753 39.0678L319.243 41.8777C319.292 41.9755 319.378 42.061 319.476 42.1098C319.586 42.1465 319.708 42.1832 319.842 42.1832C319.964 42.1832 320.099 42.1465 320.209 42.0976C320.331 42.0366 320.416 41.9632 320.465 41.8655L322.359 38.2249C322.395 38.1271 322.42 38.0538 322.42 37.9683C322.42 37.8706 322.383 37.7973 322.31 37.7606C322.224 37.6873 322.139 37.6629 322.004 37.6629ZM329.054 37.6629H328.785C328.528 37.6629 328.406 37.785 328.406 38.0416V40.9004C328.406 41.0714 328.284 41.1936 328.015 41.2791C327.759 41.3768 327.417 41.4135 326.977 41.4135H325.462C324.998 41.4135 324.643 41.3646 324.399 41.2791C324.142 41.1814 324.008 41.047 324.008 40.8882V38.0416C324.008 37.785 323.886 37.6629 323.642 37.6629H323.385C323.128 37.6629 323.006 37.785 323.006 38.0416V40.8881C323.006 41.2913 323.165 41.6089 323.483 41.8411C323.886 42.1221 324.546 42.2687 325.474 42.2687H326.989C327.807 42.2687 328.431 42.1221 328.858 41.8533C329.249 41.6089 329.432 41.2913 329.432 40.8881V38.0416C329.432 37.785 329.298 37.6629 329.054 37.6629ZM334.649 37.6629H332.988C332.181 37.6629 331.583 37.785 331.204 38.0049C330.85 38.2126 330.679 38.5425 330.679 38.9579V41.8655C330.679 42.1221 330.801 42.2564 331.045 42.2564H331.302C331.558 42.2564 331.68 42.1221 331.68 41.8655V38.9457C331.68 38.7746 331.79 38.6402 332.022 38.5791C332.193 38.5303 332.523 38.5181 333 38.5181H334.649C335.101 38.5181 335.419 38.5303 335.602 38.5914C335.834 38.6524 335.932 38.7746 335.932 38.9579V41.8777C335.932 42.1343 336.054 42.2687 336.298 42.2687H336.579C336.836 42.2687 336.946 42.1343 336.946 41.8777V38.9579C336.946 38.5425 336.763 38.2126 336.372 38.005C336.005 37.7606 335.431 37.6629 334.649 37.6629ZM344.325 36.4167H344.068C343.824 36.4167 343.702 36.5389 343.702 36.7955V37.6995H340.672C339.853 37.6995 339.243 37.8461 338.827 38.1149C338.461 38.3592 338.277 38.6891 338.277 39.1289L338.265 40.9615C338.253 41.3402 338.424 41.6334 338.754 41.8533C339.169 42.1221 339.817 42.2687 340.684 42.2687H342.236C343.018 42.2687 343.641 42.1098 344.105 41.8044C344.496 41.5357 344.704 41.218 344.704 40.8515V36.7955C344.704 36.5389 344.569 36.4167 344.325 36.4167V36.4167ZM340.672 41.4135C340.159 41.4135 339.805 41.3768 339.585 41.2791C339.389 41.1936 339.291 41.0225 339.291 40.7782V39.1411C339.291 38.9457 339.389 38.7868 339.597 38.7013C339.817 38.6036 340.159 38.5547 340.635 38.5547H343.677V40.8515C343.677 41.0225 343.543 41.1691 343.286 41.2669C343.018 41.3768 342.627 41.4257 342.114 41.4257H340.672V41.4135ZM350.165 37.6629H348.271C347.526 37.6629 346.939 37.785 346.487 38.0538C346.06 38.3104 345.828 38.6769 345.828 39.1167V40.8026C345.828 41.1936 346.023 41.5357 346.402 41.8411C346.573 41.9755 346.817 42.0854 347.135 42.1587C347.452 42.2198 347.843 42.2687 348.308 42.2687H348.955C349.212 42.2687 349.322 42.1343 349.322 41.8777V41.7922C349.322 41.5357 349.199 41.4135 348.955 41.4135H348.198C347.318 41.4135 346.878 41.0958 346.878 40.4606H351.912C352.009 40.4606 352.083 40.4239 352.119 40.3384C352.168 40.2529 352.193 40.1673 352.193 40.0452V38.9334C352.193 38.5303 351.973 38.2004 351.569 37.9683C351.203 37.7606 350.739 37.6629 350.165 37.6629ZM346.866 39.5809V39.0434C346.866 38.8724 347.013 38.738 347.33 38.628C347.587 38.5425 347.953 38.5058 348.393 38.5058H349.871C350.238 38.5058 350.556 38.5425 350.824 38.6524C351.105 38.7502 351.227 38.8601 351.227 38.9945V39.5687L346.866 39.5809ZM356.029 37.6629H355.626C354.941 37.6629 354.404 37.785 354.013 38.0416C353.622 38.2859 353.414 38.6402 353.414 39.0923L353.402 41.8777C353.402 42.1343 353.524 42.2687 353.781 42.2687H354.062C354.306 42.2687 354.44 42.1343 354.44 41.8777V39.0923C354.44 38.9212 354.502 38.7868 354.648 38.6891C354.819 38.5791 355.137 38.5181 355.564 38.5181H356.029C356.285 38.5181 356.407 38.3837 356.407 38.1271V38.0294C356.395 37.785 356.273 37.6629 356.029 37.6629Z" fill="black"/>
<path d="M310.277 0.107895C301.297 0.107895 294.004 7.3892 294.004 16.3809C294.004 25.3725 301.285 32.6416 310.277 32.6416C319.269 32.6416 326.538 25.3603 326.538 16.3809C326.538 7.40141 319.256 0.107895 310.277 0.0510254V0.107895ZM310.277 31.4566C301.945 31.4566 295.201 24.7128 295.201 16.3809C295.201 8.04891 301.945 1.30516 310.277 1.30516C318.609 1.30516 325.353 8.04891 325.353 16.3809C325.353 24.7006 318.609 31.4566 310.277 31.4566ZM310.277 2.45355C307.479 2.45355 304.877 3.27208 302.702 4.68925L306.404 7.98783L310.277 4.53043L314.15 7.98783L317.851 4.68925C315.677 3.27208 313.075 2.45355 310.277 2.45355ZM321.602 8.28103L314.15 14.9271L310.277 11.4574L306.404 14.9271L298.952 8.28103C297.315 10.5656 296.362 13.3633 296.362 16.3809H324.204C324.192 13.3511 323.239 10.5534 321.602 8.28103ZM318.035 18.3111L314.162 21.7685L310.289 18.3111L306.416 21.7685L302.531 18.3111L298.659 21.7808L306.429 28.6956L310.301 25.2382L314.174 28.6956L321.944 21.7808L318.035 18.3111Z" fill="#B4152B"/>
<path d="M471.441 15.5034H465.565V11.1175H482.241V15.5034H476.377V31.19H471.441V15.5034ZM454.814 11.1175H459.75V26.8041H468.326V31.19H454.814V11.1175ZM451.295 28.6611L451.234 28.7222C449.072 30.7013 446.458 31.6298 442.988 31.6298C436.88 31.6298 432.775 27.4394 432.775 21.221C432.775 14.917 436.77 10.6899 442.719 10.6899C448.412 10.6899 452.261 14.8926 452.285 21.1477C452.285 21.7585 452.248 22.5037 452.187 22.9558H438.113L438.162 23.1879C438.761 25.8634 440.545 27.2683 443.306 27.2683C445.102 27.2683 446.8 26.6331 448.229 25.4236L448.29 25.3747L451.295 28.6611ZM447.105 19.2907L447.056 19.0586C446.494 16.4808 444.979 15.1125 442.683 15.1125C440.288 15.1125 438.724 16.4808 438.162 19.0586L438.113 19.2907H447.105ZM423.966 25.558L420.032 11.1175H414.718L410.784 25.5335L407.033 11.1175H401.902L407.571 31.19H413.521L417.345 18.2034L421.168 31.19H427.118L432.787 11.1175H427.729L423.966 25.558Z" fill="#0F1D46"/>
<path d="M570.056 21.1598C570.056 32.8514 560.576 42.3195 548.896 42.3195C537.204 42.3195 527.736 32.8392 527.736 21.1598C527.736 9.46814 537.217 0 548.896 0C560.576 -1.0847e-06 570.056 9.46813 570.056 21.1598Z" fill="url(#paint5_linear_59_1924)"/>
<path d="M569.641 17.4215C570.484 22.0883 561.871 27.5493 550.412 29.614C538.952 31.6786 528.971 29.5651 528.128 24.8982C527.285 20.2314 535.898 14.7704 547.358 12.7057C558.829 10.6411 568.798 12.7546 569.641 17.4215Z" fill="url(#paint6_linear_59_1924)"/>
<path d="M543.289 18.5086C543.79 19.0095 544.047 19.6325 544.047 20.3411V24.5804H542.727V20.3289C542.727 19.9746 542.605 19.6936 542.361 19.4371C542.104 19.1927 541.823 19.0706 541.469 19.0706H539.832C539.478 19.0706 539.197 19.1927 538.94 19.4371C538.696 19.6936 538.574 19.9746 538.574 20.3289V21.9782C538.574 22.3325 538.696 22.6257 538.952 22.8823C539.209 23.1388 539.49 23.261 539.844 23.261H541.86V24.5804H539.844H539.832C539.123 24.5804 538.5 24.3239 538.012 23.823C537.511 23.3221 537.254 22.699 537.254 21.9904V20.3411C537.254 19.6325 537.511 19.0095 538.012 18.5086C538.512 18.0077 539.136 17.7511 539.844 17.7511H541.469C542.165 17.7389 542.788 18.0077 543.289 18.5086ZM548.372 19.0828H549.691V17.7634H548.372V19.0828ZM548.372 24.5804H549.691V19.7914H548.372V24.5804ZM545.549 24.5804H546.869V17.7756H545.549V24.5804ZM551.181 24.5804H552.501V17.7756H551.181V24.5804ZM556.056 21.8194H560.65C560.65 21.8194 560.65 20.2923 560.65 19.7791C560.65 19.2294 560.442 18.7407 560.051 18.3498C559.66 17.9588 559.171 17.7511 558.621 17.7511C558.621 17.7511 558.621 17.7511 558.609 17.7511H556.435C555.726 17.7511 555.103 18.0077 554.602 18.5086C554.101 19.0095 553.845 19.6325 553.845 20.3411V21.9904C553.845 22.699 554.101 23.3221 554.602 23.823C555.103 24.3239 555.726 24.5804 556.435 24.5804H560.1V23.261H556.435C556.08 23.261 555.799 23.1388 555.531 22.8823C555.274 22.6257 555.164 22.3325 555.152 21.9782V20.3289C555.152 19.9746 555.274 19.6936 555.518 19.4371C555.775 19.1805 556.056 19.0706 556.41 19.0706H558.597C558.793 19.0706 558.951 19.1317 559.098 19.2783C559.245 19.4249 559.306 19.5715 559.306 19.7792C559.306 19.9502 559.306 20.28 559.306 20.5H556.032L556.056 21.8194ZM568.517 20.3411V21.9904C568.517 22.699 568.261 23.3221 567.76 23.823C567.259 24.3239 566.636 24.5804 565.939 24.5804H565.927H564.302C563.594 24.5804 562.971 24.3239 562.47 23.823C561.969 23.3221 561.712 22.699 561.712 21.9904V20.3411C561.712 19.6325 561.969 19.0095 562.47 18.5086C562.971 18.0077 563.594 17.7511 564.302 17.7511H565.927C566.636 17.7511 567.259 18.0077 567.76 18.5086C568.261 18.9973 568.517 19.6325 568.517 20.3411ZM567.198 20.3289C567.198 19.9746 567.076 19.6936 566.831 19.4371C566.575 19.1805 566.294 19.0706 565.939 19.0706H564.302C563.948 19.0706 563.655 19.1927 563.411 19.4371C563.154 19.6936 563.044 19.9746 563.044 20.3289V21.9782C563.044 22.3325 563.166 22.6257 563.423 22.8823C563.679 23.1388 563.96 23.261 564.327 23.261H565.964C566.318 23.261 566.599 23.1388 566.856 22.8823C567.112 22.6257 567.222 22.3325 567.222 21.9782L567.198 20.3289ZM533.381 20.5122H536.057C536.057 20.5122 536.057 22.0393 536.057 22.5524C536.057 23.1022 535.849 23.5908 535.458 23.9818C535.067 24.3727 534.579 24.5804 534.029 24.5804C534.029 24.5804 534.029 24.5804 534.017 24.5804H531.842C531.133 24.5804 530.51 24.3239 530.009 23.823C529.508 23.3221 529.252 22.699 529.252 21.9904V20.3411C529.252 19.6325 529.508 19.0095 530.009 18.5086C530.51 18.0077 531.133 17.7511 531.842 17.7511H535.507V19.0706H531.842C531.488 19.0706 531.207 19.1927 530.938 19.4493C530.681 19.7058 530.559 19.9991 530.559 20.3533V22.0026C530.559 22.3569 530.681 22.6379 530.926 22.8945C531.182 23.151 531.463 23.261 531.817 23.261H534.004C534.2 23.261 534.359 23.1999 534.505 23.0533C534.652 22.9067 534.713 22.7601 534.713 22.5524C534.713 22.3814 534.713 22.0515 534.713 21.8316H533.357L533.381 20.5122Z" fill="white"/>
<defs>
<radialGradient id="paint0_radial_59_1924" cx="0" cy="0" r="1" gradientTransform="matrix(16.2872 9.87612 11.1366 -14.9863 -453.651 1297.77)" gradientUnits="userSpaceOnUse">
<stop/>
<stop offset="1" stop-opacity="0"/>
</radialGradient>
<radialGradient id="paint1_radial_59_1924" cx="0" cy="0" r="1" gradientTransform="matrix(14.6092 11.8693 13.3348 -13.4922 -667.476 1549.37)" gradientUnits="userSpaceOnUse">
<stop stop-opacity="0"/>
<stop offset="1"/>
</radialGradient>
<radialGradient id="paint2_radial_59_1924" cx="0" cy="0" r="1" gradientTransform="matrix(12.6159 12.4157 15.301 -10.6215 -920.708 1618.85)" gradientUnits="userSpaceOnUse">
<stop stop-color="white"/>
<stop offset="1" stop-color="white" stop-opacity="0"/>
</radialGradient>
<radialGradient id="paint3_radial_59_1924" cx="0" cy="0" r="1" gradientUnits="userSpaceOnUse" gradientTransform="translate(-35.1105 44.6259) scale(19.859 20.3282)">
<stop stop-color="white"/>
<stop offset="1" stop-color="#E6E6E6" stop-opacity="0"/>
</radialGradient>
<radialGradient id="paint4_radial_59_1924" cx="0" cy="0" r="1" gradientTransform="matrix(10.751 -24.2214 -17.081 -15.9541 -1176.93 -3004.39)" gradientUnits="userSpaceOnUse">
<stop stop-color="white" stop-opacity="0"/>
<stop offset="1" stop-color="white"/>
</radialGradient>
<linearGradient id="paint5_linear_59_1924" x1="-68.6099" y1="162.788" x2="-111.009" y2="162.921" gradientUnits="userSpaceOnUse">
<stop stop-color="#2C3566"/>
<stop offset="0.1372" stop-color="#2B396A"/>
<stop offset="0.2831" stop-color="#264577"/>
<stop offset="0.4329" stop-color="#1F588C"/>
<stop offset="0.5855" stop-color="#1574AA"/>
<stop offset="0.7386" stop-color="#0897D0"/>
<stop offset="0.8259" stop-color="#00AEE9"/>
</linearGradient>
<linearGradient id="paint6_linear_59_1924" x1="-266.851" y1="329.871" x2="-225.355" y2="323.514" gradientUnits="userSpaceOnUse">
<stop offset="0.0095" stop-color="#214879"/>
<stop offset="0.2001" stop-color="#17669B"/>
<stop offset="0.4216" stop-color="#0D83BC"/>
<stop offset="0.6342" stop-color="#0698D4"/>
<stop offset="0.8319" stop-color="#01A5E2"/>
<stop offset="1" stop-color="#00A9E7"/>
</linearGradient>
</defs>
</svg>
